<?xml version="1.0" encoding="UTF-8" standalone="no"?>
<!-- Generator: Adobe Illustrator 21.0.1, SVG Export Plug-In . SVG Version: 6.00 Build 0)  -->

<svg
   xmlns:dc="http://purl.org/dc/elements/1.1/"
   xmlns:cc="http://creativecommons.org/ns#"
   xmlns:rdf="http://www.w3.org/1999/02/22-rdf-syntax-ns#"
   xmlns:svg="http://www.w3.org/2000/svg"
   xmlns="http://www.w3.org/2000/svg"
   xmlns:sodipodi="http://sodipodi.sourceforge.net/DTD/sodipodi-0.dtd"
   xmlns:inkscape="http://www.inkscape.org/namespaces/inkscape"
   version="1.1"
   id="Calque_1"
   x="0px"
   y="0px"
   viewBox="0 0 305 293"
   xml:space="preserve"
   sodipodi:docname="logo.svg"
   width="305"
   height="293"
   inkscape:version="0.92.3 (2405546, 2018-03-11)"><metadata
   id="metadata1015"><rdf:RDF><cc:Work
       rdf:about=""><dc:format>image/svg+xml</dc:format><dc:type
         rdf:resource="http://purl.org/dc/dcmitype/StillImage" /><dc:title></dc:title></cc:Work></rdf:RDF></metadata><defs
   id="defs1013" /><sodipodi:namedview
   pagecolor="#ffffff"
   bordercolor="#666666"
   borderopacity="1"
   objecttolerance="10"
   gridtolerance="10"
   guidetolerance="10"
   inkscape:pageopacity="0"
   inkscape:pageshadow="2"
   inkscape:window-width="1366"
   inkscape:window-height="705"
   id="namedview1011"
   showgrid="false"
   inkscape:zoom="1.2407407"
   inkscape:cx="216"
   inkscape:cy="216"
   inkscape:window-x="-8"
   inkscape:window-y="-8"
   inkscape:window-maximized="1"
   inkscape:current-layer="Calque_1" />
<style
   type="text/css"
   id="style916">
	.st0{fill:#DA1C5C;}
	.st1{fill:#C87B33;}
	.st2{fill:#010101;}
	.st3{fill:#CB7B29;}
	.st4{fill:none;stroke:#CB7B29;stroke-miterlimit:10;}
	.st5{fill:#D8DEC8;}
	.st6{fill:#24592C;}
	.st7{fill:#95C13D;}
	.st8{fill:#EC6B6E;}
	.st9{fill:#75BAE7;}
	.st10{fill:#644F43;}
	.st11{fill:#C49548;}
	.st12{fill:#BCBEC0;}
</style>
<rect
   style="fill:#ffffff;fill-opacity:1;stroke:none;stroke-width:1.74151909"
   id="rect866"
   width="305"
   height="293"
   x="0"
   y="0"
   ry="25"
   rx="25" /><g
   id="g1008"
   transform="matrix(0.90621839,0,0,0.90621839,-43.322855,-49.243173)">
	<g
   id="g982">
		<g
   id="g980">
			<g
   id="g928">
				<path
   d="m 133.5,197.6 c 1.6,-0.9 3,-2.1 4.3,-3.3 1.4,-1.3 2.8,-2.5 4,-3.9 1.5,-1.6 3.4,-1.9 5.4,-1.7 2.6,0.3 4.2,1.7 5.1,4.1 0.6,1.6 0.9,3.2 1.1,4.9 0.4,2.9 0.5,5.8 0.6,8.7 0.3,5.5 0.7,11.1 1.9,16.5 0.1,0.6 0.3,1.2 0.5,1.8 0.3,0.9 0.4,0.9 1.1,0.3 1.4,-1.3 2.6,-2.8 3.6,-4.4 1.4,-2.2 2.7,-4.6 3.8,-7 2.3,-4.9 4.8,-9.8 7.6,-14.5 0.4,-0.7 0.7,-1.4 1,-2.2 0.9,-2.9 2.2,-5.6 4.1,-8 2.2,-2.8 5.1,-4.7 8.7,-5.2 1.6,-0.2 3.3,-0.2 4.9,0.3 2.8,0.9 3.3,2.7 3.3,5.1 0,0.4 -0.3,0.7 -0.6,0.9 -1.1,0.5 -2.6,0.2 -3.3,-0.8 -0.2,-0.3 -0.4,-0.5 -0.7,-0.8 -0.4,-0.5 -0.5,-0.5 -0.9,0 -0.6,0.8 -1.2,1.7 -1.6,2.6 -1,2.2 -1.8,4.4 -2.3,6.7 -0.7,3.1 -1.3,6.2 -1.5,9.4 -0.2,3.5 -0.1,6.9 1.1,10.3 0.1,0.3 0.2,0.7 0.4,1 0.5,1 0.6,1 1.4,0.3 0.8,-0.8 1.5,-1.6 2.2,-2.5 1.6,-2.3 2.8,-4.9 3.8,-7.5 1.7,-4.3 2.7,-8.9 3.7,-13.4 0.1,-0.6 0.3,-1.1 0.4,-1.7 0.2,-0.7 0.6,-1.2 1.3,-1.4 1.4,-0.5 2.9,-0.5 4.3,0 0.8,0.3 1.2,0.9 1.3,1.7 0.1,0.8 0.2,1.6 0.2,2.5 0.1,3.5 0.1,6.9 0.2,10.4 0.1,2.7 0.4,5.4 1,8.1 0.2,0.8 0.4,1.5 0.8,2.2 0.3,0.6 0.5,0.6 0.9,0.2 0.8,-0.8 1.5,-1.8 2,-2.8 1.3,-2.4 2.2,-4.9 3,-7.4 1.2,-4 2.3,-8.1 3.2,-12.2 0.3,-1.1 0.1,-2.2 0,-3.3 -0.2,-1.7 -0.3,-3.4 -0.1,-5.1 0.2,-1.8 0.8,-2.6 2.5,-3.1 1.7,-0.5 3.5,-0.4 5.2,0.1 1,0.3 1.8,1 2.2,2 0.4,1.1 0.8,2.2 1.1,3.3 1.2,4.4 2.4,8.7 3.8,13 0.1,0.3 0.2,0.6 0.4,1 0.4,-1.1 0.5,-2.1 0.6,-3 0.6,-3.3 1.2,-6.6 2.1,-9.9 0.3,-1 0.6,-2 1,-3 0.6,-1.5 1.7,-2.2 3.3,-2.3 1.8,-0.1 3.3,0.4 4.6,1.7 1,1 2,1.9 3.1,2.6 0.6,0.4 0.6,0.4 0.9,-0.3 1.1,-2.6 2.4,-5.1 4.1,-7.3 1.3,-1.7 2.8,-3.2 4.6,-4.3 2.2,-1.3 4.5,-1.8 6.9,-1.4 2.8,0.5 4.3,2 4.8,4.9 0.5,3.3 -0.5,6.1 -2.4,8.8 -1.7,2.4 -4.1,3.7 -6.9,4.5 -1.1,0.3 -1.1,0.3 -1.2,1.5 -0.5,4.6 0.2,9.1 2,13.3 0.8,2 1.8,3.9 3.4,5.5 2.2,2.1 2.5,2 5,0.8 2.6,-1.2 4.7,-3 6.6,-5.1 0.7,-0.8 1.4,-1.6 2.1,-2.4 0.3,-0.4 0.4,-0.7 0.3,-1.2 -0.9,-3.4 -1.6,-6.8 -2,-10.3 -0.4,-3 -0.7,-6 -0.9,-9 -0.5,-6 -0.5,-12 -0.3,-18 0.2,-6.8 0.9,-13.6 2.8,-20.1 0.6,-2.1 1.4,-4.1 2.3,-6 0.1,-0.3 0.3,-0.6 0.5,-0.8 1.4,-2.7 4.1,-3 6.1,-2.5 1.4,0.3 2.3,1.3 3.1,2.4 0.8,1.2 1.4,2.6 1.9,3.9 1.5,4.1 2.3,8.2 2.9,12.5 0.4,3.4 0.6,6.9 0.5,10.4 -0.1,3.3 -0.4,6.5 -0.8,9.8 -0.8,6 -2.2,11.9 -4.2,17.7 -0.1,0.3 -0.2,0.6 -0.3,0.8 -0.7,1.3 -0.7,2.6 -0.4,4 0.8,3.6 1.6,7.2 3.1,10.6 1.1,2.6 2.5,5.1 4.7,7.1 1.9,1.8 1.7,1.5 3.7,0.6 2.4,-1.1 4.2,-2.8 5.5,-5.1 0.9,-1.7 2.3,-2.6 4,-3.4 0.7,-0.3 1.4,-0.3 1.9,0.3 0.2,0.2 0.4,0.4 0.6,0.6 0.6,0.8 0.8,1.7 0.4,2.7 -0.9,2.3 -2.3,4.2 -4.2,5.8 -2.7,2.2 -5.8,3.7 -9.3,4.2 -4.7,0.6 -8.9,-0.5 -12.6,-3.4 -2.3,-1.8 -4,-4 -5.4,-6.4 -0.1,-0.1 -0.1,-0.2 -0.2,-0.3 -0.5,-0.8 -0.5,-0.8 -1.1,-0.2 -0.6,0.6 -1.1,1.1 -1.7,1.6 -3.3,2.9 -7.1,4.6 -11.5,4.9 -4.4,0.3 -8.5,-0.5 -12.2,-3 -3.3,-2.2 -5.3,-5.3 -6.6,-9 -0.8,-2.3 -1.3,-4.6 -1.4,-7.1 -0.2,-2.6 0.1,-5.2 0.7,-7.7 0.1,-0.4 0.2,-0.8 -0.4,-1 -1.9,-0.8 -3.6,-1.9 -5.2,-3.2 -0.1,-0.1 -0.2,-0.1 -0.2,-0.1 -0.3,0.2 -0.3,0.4 -0.3,0.7 -0.9,3.3 -1.4,6.6 -1.9,10 -0.4,2.8 -0.7,5.6 -0.9,8.4 -0.2,2.7 -0.2,5.5 0,8.2 0,0.3 0.1,0.7 0.2,1 0.2,0.7 0.4,1.4 0.6,2.1 0.2,1.1 -0.1,1.7 -1,2.3 -0.8,0.5 -1.7,0.7 -2.5,0.8 -1.3,0.1 -2.5,0.1 -3.8,-0.2 -1.7,-0.4 -3,-1.2 -3.9,-2.7 -1.5,-2.2 -2.7,-4.5 -3.7,-6.9 -1.2,-2.9 -2.3,-5.8 -3.2,-8.8 -0.1,-0.4 -0.3,-0.8 -0.5,-1.3 -0.2,0.8 -0.5,1.6 -0.7,2.4 -0.8,2.8 -1.7,5.5 -2.9,8.2 -0.6,1.4 -1.3,2.7 -2.2,4 -3.1,4.6 -10.2,4 -12.7,-0.4 -0.6,-1 -1,-2.1 -1.4,-3.2 -0.3,0.4 -0.4,0.8 -0.6,1.1 -0.8,1.8 -1.8,3.5 -3,5 -1.8,2.3 -4.1,3.6 -7,4 -2.4,0.3 -4.7,0.2 -7,-0.5 -3.4,-1.1 -5.5,-3.6 -6.7,-6.8 -0.6,-1.5 -0.9,-3.2 -1.1,-4.8 0,-0.1 0,-0.3 -0.2,-0.5 -0.3,0.4 -0.4,0.8 -0.5,1.2 -0.9,2.4 -1.8,4.9 -2.9,7.3 -1.3,2.8 -2.9,5.5 -5,7.7 -2.1,2.2 -4.7,3.5 -7.8,3.4 -1.1,0 -2.3,0 -3.4,-0.3 -2.8,-0.6 -4.8,-2.2 -6.3,-4.6 -1.6,-2.6 -2.5,-5.5 -3.1,-8.5 -0.5,-2.5 -0.7,-5.1 -0.8,-7.7 -0.2,-3.5 0.1,-7 0.1,-10.6 0,-1.2 0.1,-2.4 0.2,-3.6 0,-0.2 0.1,-0.5 -0.2,-0.8 -0.5,0.4 -0.9,0.7 -1.4,1.1 -2.1,1.8 -4.3,3.5 -6.9,4.6 -0.5,0.2 -0.6,0.6 -0.7,1.1 -0.2,2.7 -0.7,5.4 -1.4,8.1 -1.6,6.7 -4,13.1 -7.8,18.8 -0.8,1.1 -1.6,2.2 -2.6,3.1 -2.1,2 -4.6,2.7 -7.5,2.4 -3.2,-0.3 -5.8,-1.8 -7.8,-4.3 -1.7,-2 -2.9,-4.3 -3.9,-6.7 -2.1,-4.7 -3.3,-9.7 -4.2,-14.7 -0.7,-4.2 -1.3,-8.4 -1.6,-12.7 -0.3,-3.5 -0.4,-7.1 -0.6,-10.6 C 95.8,175 96,164.8 96,154.5 c 0,-0.3 0,-0.7 0,-1 0,-0.4 -0.2,-0.6 -0.7,-0.6 -5.5,0.6 -10.7,1.9 -15.7,4.3 -4.8,2.3 -9,5.3 -13,8.8 -0.6,0.5 -1.1,0.7 -1.8,0.5 -0.7,-0.1 -0.9,-0.5 -0.8,-1.2 0.2,-0.8 0.6,-1.5 1,-2.1 1.2,-1.7 2.7,-3.2 4.4,-4.5 4.8,-3.9 10.4,-6.4 16.3,-7.9 3,-0.8 6.1,-1.3 9.3,-1.7 1,-0.1 1.1,-0.2 1.1,-1.3 0.1,-3 0.2,-5.9 0.6,-8.8 0.1,-0.8 0.3,-1.6 0.5,-2.3 0.3,-0.8 0.8,-1.3 1.7,-1.6 1.1,-0.3 2.1,-0.4 3.2,0 0.9,0.3 1.6,0.9 2.1,1.7 0.7,1.3 1.2,2.7 1.5,4.2 0.5,1.9 0.8,3.8 1.1,5.7 0,0.1 0,0.3 0.1,0.4 0.2,0.9 0.2,0.9 1.1,0.8 1.2,-0.2 2.4,-0.2 3.6,-0.3 7.8,-0.5 15.6,-1.7 23.2,-3.5 5.9,-1.4 11.6,-3.2 17.4,-5 5.1,-1.6 10.2,-3.4 15.2,-5.4 1.2,-0.4 2.3,-0.5 3.6,-0.4 0.6,0 1.2,0.2 1.7,0.6 0.7,0.5 0.7,1 0.1,1.6 -0.4,0.4 -0.9,0.6 -1.3,0.9 -2.1,1.1 -4.4,2.1 -6.6,3 -5.2,2.2 -10.3,4.3 -15.7,5.9 -6.8,2.1 -13.7,3.8 -20.8,4.9 -5.1,0.8 -10.3,1.3 -15.4,1.5 -1.5,0.1 -3,0.1 -4.6,0.2 -0.9,0.1 -0.9,0.1 -0.9,1 0.3,4.7 0.6,9.3 0.7,14 0,1.9 0.1,3.7 0.1,5.6 0.1,4.5 0.3,9 0.4,13.4 0.1,2.8 0.2,5.5 0.4,8.3 0.2,3.9 0.5,7.8 0.9,11.7 0.5,4.8 1.1,9.6 2.2,14.3 0.6,2.7 1.3,5.3 2.4,7.8 0.3,0.7 0.7,1.4 1.1,2.1 0.5,0.8 0.6,0.8 1.4,0.2 0.9,-0.7 1.7,-1.6 2.4,-2.5 2.4,-3.1 4.2,-6.7 5.7,-10.3 1.9,-4.5 3.2,-9.1 3.9,-13.9 0,-0.3 0.1,-0.6 0.1,-0.9 0.1,-0.7 0.1,-0.8 -0.7,-0.7 -1.8,0 -3.5,-0.2 -5.2,-0.9 -3.5,-1.3 -5.5,-3.9 -6.1,-7.5 -0.4,-2.3 -0.3,-4.6 0.4,-6.9 0.2,-0.6 0.4,-1.2 0.7,-1.8 1,-1.8 2.5,-2.8 4.6,-3 2.7,-0.2 4.9,0.6 6.6,2.7 1.9,2.3 3,5 3.6,7.9 0.3,1.5 0.5,3 0.6,4.5 -0.3,0.1 -0.4,0.3 -0.2,0.6 z m 150.9,-9.3 c 0.3,-0.4 0.4,-0.7 0.5,-1 1,-3.1 1.9,-6.3 2.6,-9.5 0.7,-3.3 1.2,-6.6 1.4,-9.9 0.1,-2.7 0.1,-5.3 -0.1,-8 -0.4,-3.7 -1,-7.4 -2.1,-10.9 -0.6,-1.9 -1.3,-3.7 -2.5,-5.3 -0.2,-0.3 -0.3,-0.6 -0.7,-0.7 -0.2,0.2 -0.2,0.3 -0.2,0.5 -0.4,2.9 -0.7,5.7 -0.8,8.6 -0.1,3.3 -0.1,6.7 -0.1,10 0.1,3.3 0.3,6.6 0.5,9.9 0.3,4.2 0.6,8.5 1.1,12.7 0.1,1.1 0.2,2.3 0.4,3.6 z m -155.1,8.9 c 0.1,-0.7 -0.1,-1.5 -0.2,-2.4 -0.2,-2.3 -0.8,-4.6 -1.8,-6.7 -0.7,-1.4 -1.5,-2.6 -2.8,-3.6 -0.5,-0.4 -0.7,-0.4 -1,0.2 -0.3,0.6 -0.5,1.2 -0.6,1.8 -0.5,3.1 -0.1,6.1 1.1,9 0.5,1.2 1.2,2.1 2.2,2.9 0.6,0.5 1.3,0.8 2.1,0.8 0.7,0.1 0.9,-0.1 1,-0.8 0,-0.2 0,-0.6 0,-1.2 z m 130.9,-17.1 c -1.3,1.3 -3.9,8.8 -3.6,10.4 3.4,-1.9 5.3,-7.7 3.6,-10.4 z"
   id="path918"
   inkscape:connector-curvature="0" />
				<path
   d="m 199.1,275.9 c -1,3.2 -2,6.4 -3.3,9.5 -1,2.5 -2.2,5 -3.7,7.3 -1.4,2.1 -3.2,3.6 -5.9,3.7 -2.6,0.2 -4.9,-0.5 -6.9,-2.3 -1.6,-1.4 -2.7,-3.2 -3.6,-5.1 -1.5,-3.3 -2.5,-6.8 -3.1,-10.4 -0.7,-3.8 -1,-7.7 -1.2,-11.5 -0.2,-3.6 -0.1,-7.2 -0.1,-10.8 0,-0.8 0.1,-1.5 0.1,-2.3 0,-0.8 -0.1,-0.8 -0.8,-0.7 -2.3,0.5 -4.5,1 -6.8,1.4 -1.3,0.3 -2.6,0.5 -3.9,0.6 -0.8,0.1 -1.6,0 -2.4,-0.2 -0.3,-0.1 -0.7,-0.2 -0.9,-0.4 -0.6,-0.4 -0.6,-1 -0.1,-1.4 0.5,-0.4 1,-0.6 1.6,-0.9 1.7,-0.7 3.4,-1.2 5.2,-1.6 2.5,-0.7 5,-1.4 7.5,-1.9 0.8,-0.2 0.8,-0.2 0.9,-1 0.1,-1.1 0.2,-2.3 0.3,-3.4 0.4,-4.4 0.9,-8.8 1.8,-13.2 0.1,-0.7 0.4,-1.4 0.5,-2 0.3,-0.9 0.8,-1.4 1.7,-1.6 1,-0.3 1.9,-0.3 2.9,0 0.9,0.3 1.5,0.9 1.7,1.7 0.3,1 0.4,2 0.5,3 0.1,1.1 0.2,2.3 0.2,3.4 0,3.3 0,6.5 0,9.8 0,0.3 0,0.5 0,0.8 0,0.4 0.2,0.5 0.6,0.5 0.9,-0.1 1.8,-0.2 2.6,-0.3 1.1,-0.1 2.1,0 3.1,0.3 0.6,0.2 1.2,0.4 1.2,1.2 0.1,0.8 -0.6,1.1 -1.2,1.3 -1.1,0.4 -2.2,0.6 -3.3,0.8 -0.8,0.2 -1.6,0.4 -2.4,0.5 -0.5,0.1 -0.7,0.4 -0.7,0.8 0,2.9 -0.3,5.7 -0.1,8.6 0.1,0.7 0,1.4 0,2.1 0,4.4 0.3,8.8 0.6,13.2 0.4,4.3 0.9,8.7 2.2,12.8 0.4,1.2 0.8,2.3 1.4,3.3 0.6,1.2 0.7,1.3 1.6,0.2 1.1,-1.2 1.9,-2.5 2.7,-3.9 2.4,-4.1 4.2,-8.5 5.7,-13 1.5,-4.5 2.7,-9.1 3.7,-13.8 0.2,-0.7 0.2,-1.5 0.3,-2.3 0.2,-3 0.3,-6.1 0.4,-9.1 0.2,-3.8 0.5,-7.7 0.7,-11.5 0.1,-2.3 0.4,-4.7 0.8,-7 0.1,-0.3 0.1,-0.7 0.2,-1 0.2,-1.3 1,-2 2.2,-2.2 1,-0.2 2,-0.2 3,0.2 0.9,0.3 1.5,0.9 1.8,1.8 0.4,1.4 0.7,2.9 0.9,4.4 0.5,3.3 0.8,6.7 1.1,10 0.2,2.6 0.3,5.3 0.4,7.9 0.1,2.7 0.1,5.4 0.2,8.1 0,0.2 0,0.3 0.1,0.5 0.4,-0.2 0.5,-0.5 0.7,-0.8 1.7,-2.8 3.7,-5.3 6,-7.6 0.8,-0.8 1.6,-1.4 2.5,-2 0.9,-0.5 1.8,-0.8 2.8,-0.8 1.9,0 3.4,0.7 4.5,2.4 1,1.6 1.5,3.4 1.9,5.2 0.7,3.1 1,6.3 1.4,9.5 0.2,2.5 0.5,5.1 0.7,7.6 0.1,1.5 0.2,2.9 0.3,4.4 0.2,2.9 0.4,5.7 1.2,8.5 0.1,0.4 0.3,0.8 0.4,1.3 0.1,0.4 0.4,0.5 0.7,0.3 1.1,-0.7 2,-1.7 2.9,-2.7 0.3,-0.3 0,-0.7 -0.1,-1 -0.9,-1.6 -1.5,-3.2 -1.9,-5 -0.4,-1.8 -0.6,-3.7 -0.7,-5.6 -0.1,-5.2 0.6,-10.3 2.1,-15.3 0.7,-2.3 1.7,-4.4 3.2,-6.4 2.9,-3.9 7.9,-4.6 11.6,-3.4 2.6,0.9 4,2.8 4.4,5.5 0.5,2.9 0,5.6 -0.8,8.4 -1.1,3.7 -2.9,7.2 -4.9,10.5 -0.8,1.3 -1.7,2.6 -2.6,3.8 -0.3,0.4 -0.5,0.8 -0.4,1.4 0.4,2.1 0.9,4.2 1.9,6.2 0.5,0.9 1,1.7 1.8,2.3 0.5,0.4 1,0.5 1.7,0.4 1.4,-0.3 2.8,-0.8 4,-1.5 2.7,-1.6 5.1,-3.4 7.1,-5.8 0.5,-0.5 0.9,-1.1 1.2,-1.7 0.5,-1 1.3,-1.6 2.3,-2 0.7,-0.3 1.2,-0.1 1.7,0.4 0.5,0.5 0.8,1 0.6,1.7 -0.2,1 -0.7,1.9 -1.2,2.7 -0.9,1.4 -2,2.6 -3.2,3.8 -1.5,1.4 -3,2.6 -4.7,3.8 -2.7,1.8 -5.7,2.7 -8.9,2.9 -2.1,0.1 -4.2,-0.1 -6.2,-0.6 -2,-0.5 -3.7,-1.5 -5.3,-2.8 -0.7,-0.6 -0.7,-0.6 -1.4,0.1 -0.3,0.4 -0.7,0.8 -1,1.1 -2.1,2.1 -5.4,2.6 -8,1.3 -0.7,-0.3 -1.3,-0.8 -1.8,-1.4 -1.4,-1.6 -2,-3.6 -2.4,-5.6 -0.7,-2.9 -1,-5.8 -1.2,-8.8 -0.2,-3.6 -0.2,-7.2 -0.4,-10.9 -0.1,-3.1 0,-6.3 -0.3,-9.4 -0.1,-0.9 -0.2,-1.7 -0.4,-2.5 -0.2,-0.6 -0.3,-0.6 -0.8,-0.3 -1.1,0.7 -2.1,1.6 -2.9,2.6 -3.4,3.8 -6,8.1 -7.9,12.8 -0.2,0.4 -0.2,0.8 -0.2,1.2 -0.1,4.3 -0.1,8.5 -0.3,12.8 -0.1,2.6 -0.1,5.3 -0.5,7.9 -0.2,1.6 -1.1,2.4 -2.6,2.8 -1.5,0.4 -3,0.4 -4.5,-0.1 -1.2,-0.4 -2.1,-1.1 -2.6,-2.3 -0.7,-1.6 -1,-3.3 -1.3,-5.1 -0.2,-3.1 -0.2,-6.1 -0.2,-9.1 z m 47.7,-3.1 c 0.4,-0.4 0.6,-0.9 0.8,-1.3 1.9,-3.6 3.3,-7.3 3.7,-11.3 0.2,-1.9 -0.1,-3.7 -0.9,-5.4 -0.2,-0.3 -0.3,-0.7 -0.7,-0.8 -1.9,2.9 -3.3,15.4 -2.9,18.8 z"
   id="path920"
   inkscape:connector-curvature="0" />
				<g
   id="g926">
					<path
   d="m 119.5,304.5 c -0.4,0 -0.5,0.3 -0.7,0.6 -2.4,3.1 -4.2,6.4 -5.6,10 -0.4,0.9 -0.7,1.2 -1.5,1.2 -0.8,-0.1 -1.3,-0.5 -1.5,-1.4 -0.1,-0.5 -0.1,-0.9 0,-1.4 0.2,-1.3 0.5,-2.5 1,-3.8 0.9,-2.3 1.9,-4.5 3.3,-6.5 0.3,-0.4 0.6,-0.8 0.9,-1.2 1.1,-1.5 2.5,-2.2 4.3,-2.4 1.2,-0.1 2.3,-0.1 3.5,0.2 1.8,0.5 3.1,1.5 4.1,3.1 1,1.5 1.6,3.1 2.2,4.8 1.3,3.8 2.1,7.6 2.9,11.5 0.8,4.4 1.5,8.8 2.1,13.2 0.4,2.9 0.7,5.8 1,8.7 0.5,4.4 1,8.8 1.8,13.2 0,0.1 0.1,0.2 0.1,0.4 0.3,-0.3 0.3,-0.6 0.4,-0.9 1.4,-4.9 2.4,-9.8 3.3,-14.8 1.3,-7 2.3,-14.1 3.8,-21.1 0.9,-4.2 2.1,-8.2 3.8,-12.2 0.1,-0.2 0.2,-0.5 0.3,-0.7 0.4,-1 1.2,-1.5 2.2,-1.8 1,-0.2 2,-0.2 3,0.1 0.9,0.3 1.6,0.8 2.1,1.7 0.5,0.8 0.8,1.7 1.1,2.6 1.4,4.2 2.5,8.6 3.4,13 1,5.2 2,10.3 3.1,15.5 0.8,3.9 1.6,7.8 2.6,11.6 0.1,0.2 0.1,0.4 0.3,0.6 0.3,-0.3 0.3,-0.7 0.4,-1.1 1.1,-3.9 1.9,-7.9 2.7,-11.9 1.1,-5.4 2.4,-10.8 4.4,-16 1.1,-2.7 2.3,-5.2 4.1,-7.5 2.3,-2.8 5.2,-4.1 8.8,-4.3 2.3,-0.1 4.5,0.3 6.7,0.7 2.5,0.3 5,0.5 7.5,0.5 0.6,0 0.9,-0.2 1.2,-0.8 0.8,-1.6 1.8,-3.2 3,-4.5 3.2,-3.4 7,-4.9 11.7,-4.1 0.7,0.1 1.4,0.4 2,0.7 0.5,0.3 0.9,0.7 1.2,1.2 0.4,0.7 0.3,1.1 -0.5,1.3 -0.7,0.3 -1.4,0.3 -2.1,0.1 -0.7,-0.3 -1.2,0 -1.6,0.6 -1.4,1.7 -2.3,3.6 -3,5.6 -1.5,4 -2.4,8.2 -3.1,12.4 -0.5,3 -0.9,6 -0.8,9.1 0.1,2.9 0.6,5.8 1.7,8.6 0.7,1.7 1.6,3.2 3,4.4 0.8,0.7 1.6,0.9 2.6,0.4 2,-1 3.7,-2.4 5.1,-4 3.1,-3.7 5.1,-7.9 5.8,-12.7 0.1,-0.8 0.1,-1.6 0.1,-2.5 0,-0.6 -0.1,-0.7 -0.7,-0.6 -1.5,0.2 -2.9,0.3 -4.4,0 -2.8,-0.6 -5,-1.9 -6.2,-4.6 -0.4,-1 -0.7,-2 -0.5,-3.1 0.2,-1.2 0.9,-2.1 1.9,-2.7 1.4,-0.8 2.9,-1 4.5,-0.9 3.7,0.3 6.5,2.1 8.6,5.2 0.6,0.9 0.6,0.9 1.4,0.1 0.9,-0.9 1.6,-1.9 2.2,-3 0.4,-0.8 0.4,-0.8 -0.3,-1.3 -2.1,-1.4 -3.4,-3.3 -3.8,-5.8 -0.1,-0.7 -0.1,-1.3 0,-2 0.4,-1.9 1.5,-3 3.5,-3.3 3.1,-0.4 5.3,1.3 5.7,4.4 0.2,1.7 0.1,3.3 -0.2,4.9 -0.2,0.9 -0.1,1 0.8,1.2 1.2,0.3 2.4,0.1 3.6,-0.2 2.3,-0.7 4.3,-1.8 6,-3.3 1.3,-1.1 2.5,-2.4 3.6,-3.8 0.4,-0.5 0.7,-1.1 0.9,-1.7 0.4,-1.5 1.5,-2.1 3,-2.3 1.1,-0.1 2.2,-0.1 3.3,0.3 1.1,0.3 1.8,1.1 2.1,2.2 0.5,1.9 0.6,3.9 0.5,5.9 -0.2,4.1 -0.9,8.1 -1.2,12.2 -0.3,3.3 -0.4,6.5 -0.2,9.8 0.1,2.1 0.4,4.2 0.9,6.2 0.4,1.4 0.9,2.7 1.8,3.8 0.6,0.7 1.2,1 2.1,0.8 1.4,-0.4 2.7,-0.9 4,-1.6 2.7,-1.5 5,-3.3 7.1,-5.5 0.4,-0.4 0.5,-0.8 0.2,-1.4 -1.9,-4.3 -2.9,-8.8 -3.4,-13.4 -0.3,-2.6 -0.5,-5.1 -0.6,-7.7 -0.1,-2.4 -0.2,-4.8 -0.1,-7.1 0.1,-3.6 0.3,-7.1 0.6,-10.6 0.5,-5.1 1.1,-10.1 2.1,-15.1 0.5,-2.5 1.1,-4.9 2.1,-7.2 0.5,-1.1 1,-2 1.8,-2.9 1.8,-2.1 5.8,-2.5 7.9,0.1 1.1,1.3 2,2.8 2.7,4.4 1.6,3.4 2.5,7.1 3.1,10.8 0.8,5 1.1,10 1,15.1 -0.1,5.5 -1,10.9 -2.4,16.3 -1,4 -2.5,7.8 -4.3,11.5 -0.2,0.5 -0.4,0.9 -0.3,1.5 0.9,4.3 2.1,8.6 4.3,12.5 0.4,0.7 0.8,1.4 1.3,2.1 0.3,0.5 0.7,1 1.3,1.3 0.2,0.1 0.4,0.3 0.5,0.4 0.5,0.5 0.5,1 0,1.5 -0.4,0.4 -1,0.6 -1.5,0.8 -3.1,0.7 -5.9,0.2 -8.3,-1.9 -1.6,-1.4 -2.8,-3.1 -3.9,-4.8 -0.3,-0.5 -0.6,-1 -1,-1.5 -0.2,-0.3 -0.4,-0.3 -0.7,-0.1 -0.5,0.4 -1,0.9 -1.5,1.3 -3.2,2.7 -6.7,4.6 -10.8,5.4 -3.2,0.6 -6.3,0.4 -9.3,-0.7 -3.8,-1.4 -6.3,-4.2 -7.7,-7.9 -1,-2.5 -1.4,-5.1 -1.6,-7.8 -0.3,-6.1 0.8,-11.9 2.2,-17.8 0.1,-0.3 0.2,-0.7 0.2,-1 0,0 0,-0.1 -0.1,-0.2 -0.4,0.2 -0.7,0.5 -1.1,0.7 -2.1,1.4 -4.4,2.5 -6.9,3 -1.5,0.3 -3,0.4 -4.5,0.2 -0.8,-0.1 -0.9,-0.1 -1.3,0.6 -1.1,2.1 -2.6,3.8 -4.6,5.1 -0.5,0.3 -0.7,0.7 -0.6,1.3 0.5,3.1 0.2,6.1 -0.7,9.1 -1.2,4.4 -3.5,8.3 -6.7,11.6 -2.5,2.5 -5.5,4.1 -9,4.5 -6.9,0.6 -12.7,-2.3 -16,-8.4 -1.6,-3.1 -2.4,-6.3 -2.6,-9.8 -0.3,-6.1 0.8,-11.9 3,-17.6 0.4,-1.2 0.4,-1.1 -0.8,-1.2 -3.3,-0.1 -6.7,-0.2 -10,-0.8 -0.6,-0.1 -1.2,-0.2 -1.8,-0.2 -2,-0.2 -3.7,0.5 -5.1,1.8 -1.7,1.6 -2.9,3.6 -3.9,5.7 -2.2,4.6 -3.6,9.5 -4.8,14.5 -1.3,5.3 -2.3,10.7 -3.5,16.1 -0.4,2.1 -0.9,4.2 -1.5,6.2 -0.4,1.3 -1.2,2 -2.5,2.2 -2.8,0.5 -5.1,-0.4 -7,-2.6 -1.3,-1.5 -2.2,-3.1 -3,-4.8 -1.2,-2.7 -2,-5.5 -2.7,-8.4 -0.9,-3.9 -1.6,-7.9 -2.1,-11.9 -0.6,-4.3 -0.9,-8.6 -1.3,-13 -0.1,-0.7 -0.2,-1.4 -0.3,-2.2 -0.4,0.4 -0.4,0.8 -0.5,1.2 -1.6,5.1 -2.6,10.3 -3.6,15.6 -1.7,8.6 -3.4,17.2 -5.5,25.7 -0.4,1.4 -0.8,2.8 -1.3,4.2 -0.5,1.4 -1.5,2 -3,2 -1.8,0 -3.2,-0.6 -4.3,-2.1 -1.2,-1.6 -2.1,-3.3 -2.8,-5.1 -1.8,-4.3 -2.9,-8.8 -3.8,-13.4 -1,-5.3 -1.8,-10.6 -2.5,-15.9 -0.9,-6.2 -1.7,-12.5 -3.1,-18.6 0.3,-0.8 0.1,-1.7 -0.3,-2.5 z m 167.6,17 c 0.1,-0.1 0.1,-0.3 0.2,-0.4 3,-7.3 4.7,-15 4.9,-22.9 0.1,-1.9 0,-3.8 -0.1,-5.7 -0.2,-3.7 -0.6,-7.3 -1.4,-10.9 -0.7,-3.2 -1.8,-6.2 -3.9,-8.8 -0.3,-0.3 -0.5,-0.9 -1,-0.8 -0.4,0.1 -0.3,0.7 -0.4,1.1 -0.4,2.8 -0.6,5.6 -0.6,8.4 0,4.6 0,9.1 0.2,13.7 0.1,3.3 0.2,6.6 0.4,9.9 0.2,4.3 0.5,8.7 1,13 0.1,1.1 0.2,2.3 0.7,3.4 z M 222,317.3 c 0.1,1.2 0.5,2.5 1.6,3.5 0.8,0.8 1.7,1.1 2.9,0.7 0.9,-0.3 0.9,-0.4 0.6,-1.2 -0.8,-1.8 -2,-3.2 -3.6,-4.2 -1,-0.7 -1.4,-0.5 -1.5,0.8 0,0 0,0.1 0,0.4 z m 14.1,-7.6 c 0.2,-1.4 -0.1,-2.6 -0.7,-3.2 -0.1,1.1 0.2,2.2 0.7,3.2 z"
   id="path922"
   inkscape:connector-curvature="0" />
					<path
   d="m 327,328.1 c -0.2,0.5 -0.4,0.9 -0.6,1.4 -2,4.5 -4.4,8.7 -8.1,12.1 -1.4,1.3 -2.9,2.4 -4.7,3.1 -3.6,1.4 -7.1,1.4 -10.4,-0.6 -1.9,-1.2 -3.3,-2.9 -4.2,-4.9 -0.9,-2.1 -1.4,-4.3 -1.4,-6.6 -0.1,-6.2 1.4,-11.9 5,-17 2.4,-3.5 5.8,-5.3 10,-5.8 2.8,-0.3 5.4,0 8,1 1.9,0.7 3.4,1.9 4.6,3.6 0.4,0.7 0.7,1.4 1.1,2.3 0,-1.3 0,-2.3 0,-3.4 0,-4.6 0.2,-9.2 0.5,-13.8 0.4,-5.5 1,-11.1 1.7,-16.6 0.4,-3.6 0.8,-7.2 1.2,-10.8 0.1,-1.3 0.3,-2.6 0.6,-4 0.2,-1.3 0.9,-2 2.1,-2.4 1.5,-0.4 3,-0.4 4.5,0.2 0.8,0.3 1.3,0.9 1.5,1.8 0.2,1 0.4,2 0.5,3 0.3,4.2 0.6,8.4 0.3,12.6 0,0.3 0,0.6 0,0.9 0,4.7 -0.3,9.3 -0.5,14 -0.2,6.1 -0.2,12.2 -0.1,18.3 0.2,6.6 0.8,13.2 1.9,19.7 0.1,0.4 0.1,0.9 0.3,1.3 0.4,0 0.5,-0.4 0.7,-0.6 0.9,-1.1 1.7,-2.3 2.5,-3.6 0.4,-0.8 1.1,-1.3 1.8,-1.6 0.4,-0.2 0.9,-0.4 1.3,0 0.5,0.4 0.8,0.9 0.7,1.6 0,0.2 -0.1,0.5 -0.2,0.7 -1,2.9 -2.7,5.5 -4.8,7.7 -1.1,1.2 -2.6,1.5 -4.2,1.5 -3.8,0.1 -6.6,-1.6 -8.4,-4.9 -1.3,-2.4 -2,-4.9 -2.5,-7.6 -0.2,-0.9 -0.3,-1.7 -0.5,-2.6 -0.1,0 -0.2,0 -0.2,0 z m -0.7,-8.6 c -0.1,0.5 -0.2,0.8 -0.3,1.1 -0.3,0.9 -0.7,1.1 -1.9,1.1 -0.9,-0.1 -1,-0.2 -1.3,-1.2 -0.9,-3.6 -3.3,-5.9 -6.7,-7.1 -0.6,-0.2 -1.1,-0.1 -1.6,0.2 -0.5,0.3 -1,0.6 -1.4,1 -1.1,1 -2,2.2 -2.7,3.5 -2.9,5.4 -4.5,11.1 -4.2,17.3 0.1,1.6 0.4,3.2 1,4.7 0.3,0.8 0.7,1.5 1.2,2.1 0.7,0.9 1.5,1.1 2.5,0.7 1.2,-0.4 2.3,-1 3.3,-1.7 3,-2 5.2,-4.7 7,-7.8 2.1,-3.4 3.5,-7.1 4.7,-10.9 0.4,-0.9 0.6,-1.9 0.4,-3 z"
   id="path924"
   inkscape:connector-curvature="0" />
				</g>
			</g>
			<g
   id="g978">
				<path
   class="st3"
   d="m 121.5,179.1 c -0.1,0.1 -0.2,0.2 -0.2,0.3 -0.2,0.2 -0.3,0.5 -0.5,0.7 1.3,-0.5 2.6,-0.6 4,-0.6 1,-1.6 2,-3.2 3,-4.8 1,-1.7 9.4,-16.4 15.2,-26.6 -1.2,0.2 -2.7,0.9 -4,0.9 -6.4,11 -16.4,28.5 -17.5,30.1 z"
   id="path930"
   inkscape:connector-curvature="0"
   style="fill:#cb7b29" />
				<path
   class="st3"
   d="m 221.1,99.6 c -0.1,0 -0.2,0 -0.2,0 -2.2,0 -3.3,4.2 -4.2,8.9 -0.2,0.8 -0.3,1.5 -0.4,1.9 -0.2,0.9 -0.6,1.7 -0.9,2.6 -1.5,4.4 -2.9,8.5 -0.4,12.9 0.1,0.2 0.2,0.2 0.3,0.3 0.2,0.1 0.2,0.1 0.4,0.1 0.5,0 1.4,0 3.4,-6 1,-2.7 1.8,-6 2,-7.1 0.2,-1.8 0.3,-3.7 0.4,-5.4 0,-0.6 0.1,-1.1 0.1,-1.7 0,-0.2 0.1,-0.7 0.2,-1.3 0.4,-2.1 0.6,-3.7 0.2,-4.6 0,-0.5 -0.6,-0.6 -0.9,-0.6 z"
   id="path932"
   inkscape:connector-curvature="0"
   style="fill:#cb7b29" />
				<path
   class="st3"
   d="m 315.1,195.9 c -0.1,-0.1 -0.1,-0.1 -0.2,-0.1 -0.1,-0.1 -0.2,-0.1 -0.3,-0.2 -0.1,-0.1 -0.2,-0.1 -0.2,-0.1 h -0.2 l -0.1,0.1 c -0.1,0.1 -0.1,0.2 -0.1,0.3 v 0.1 c -0.1,0.1 -0.1,0.1 -0.2,0.2 l -0.1,0.1 c -0.2,0.2 -0.3,0.3 -0.5,0.6 -0.1,0.1 -0.2,0.2 -0.2,0.3 -0.1,0.1 -0.2,0.2 -0.2,0.3 0.1,-0.2 0.2,-0.4 0.2,-0.7 l 0.1,-0.2 c 0.1,-0.3 0.3,-0.7 0.3,-1.1 0.1,-0.1 0.2,-0.1 0.2,-0.2 0.1,-0.1 0.1,-0.2 0,-0.3 -0.1,-0.1 -0.1,-0.1 -0.1,-0.2 -0.2,-0.2 -0.3,-0.3 -0.6,-0.4 -0.1,-0.1 -0.1,-0.1 -0.1,-0.1 l -0.1,-0.1 c -0.1,0 -0.2,0 -0.2,0 l -0.1,0.1 c -0.1,0.1 -0.1,0.2 -0.1,0.2 v 0.1 c 0,0.1 -0.1,0.1 -0.1,0.1 -0.2,0.2 -0.3,0.4 -2,2.2 l -0.3,0.4 c -0.1,-0.1 -0.2,-0.1 -0.3,-0.1 -0.2,0 -0.3,0.1 -0.3,0.3 0,0.1 0,0.2 0.1,0.3 l 0.4,0.4 c 0.1,0 0.1,0.1 0.1,0.1 0.1,0.1 0.2,0.2 0.3,0.2 -0.1,0 0,0 0.1,0.1 0.2,0.1 0.4,0.1 0.4,-0.1 0.1,-0.2 0.1,-0.3 0,-0.5 l 0.9,-1 c 0.1,-0.1 0.2,-0.2 0.2,-0.2 0.1,-0.1 0.2,-0.2 0.2,-0.2 0,0 0.1,-0.1 0.2,-0.2 0,0 0,0 0.1,-0.1 0,0 0,0.1 -0.1,0.1 l -0.4,1.2 c 0,0.1 -0.1,0.1 -0.1,0.2 0,0.1 0,0.1 -0.1,0.1 -0.1,0.2 -0.1,0.3 -0.2,0.4 -0.1,0.1 -0.1,0.2 -0.1,0.3 h -0.1 l -0.1,0.1 c -0.1,0.1 -0.2,0.2 -0.2,0.3 0,0.1 0.2,0.3 0.2,0.3 0.1,0.1 0.2,0.2 0.4,0.3 0.1,0.1 0.1,0.1 0.2,0.2 0.1,0.1 0.1,0.1 0.2,0.2 0.1,0.1 0.2,0.1 0.4,0 0.1,-0.1 0.2,-0.2 0.2,-0.4 v -0.1 l 0.1,-0.1 c 0.3,-0.3 0.5,-0.6 0.8,-0.9 l 0.1,-0.1 c 0.2,-0.2 0.3,-0.3 0.4,-0.5 0.1,-0.1 0.2,-0.2 0.3,-0.3 0.1,-0.1 0.2,-0.2 0.3,-0.3 0.2,-0.2 0.3,-0.3 0.4,-0.5 0.1,0 0.2,-0.1 0.3,-0.2 0.1,-0.1 0.1,-0.3 -0.1,-0.4 0.2,-0.2 0.1,-0.3 0,-0.3 z"
   id="path934"
   inkscape:connector-curvature="0"
   style="fill:#cb7b29" />
				<path
   class="st3"
   d="m 308.6,167.7 c -0.1,0.1 0.1,0.2 0.3,0.3 0,0 0.1,0.1 0.2,0.1 0.2,0.1 0.4,0.3 0.6,0.5 0.1,0.1 0.2,0.1 0.2,0.2 l 0.1,0.1 h 0.2 c 0.1,0 0.2,-0.1 0.2,-0.1 l 0.1,-0.1 v -0.3 l -0.1,-0.1 c 0,-0.1 -0.1,-0.1 -0.1,-0.1 0.2,-0.2 0.4,-0.5 0.7,-0.8 0.4,-0.4 0.8,-0.9 0.9,-0.9 0.2,-0.2 0.4,-0.5 0.7,-0.8 0.1,-0.1 0.2,-0.3 0.3,-0.4 l 0.1,-0.1 c 0.1,-0.2 0.1,-0.3 -0.1,-0.4 l -0.3,-0.3 c -0.1,-0.1 -0.3,-0.2 -0.4,-0.3 -0.1,-0.1 -0.1,-0.1 -0.2,-0.2 l -0.1,-0.1 c -0.2,-0.2 -0.4,-0.4 -0.6,-0.5 -0.2,-0.2 -0.4,-0.2 -0.8,-0.2 -0.1,0 -0.2,0.1 -0.3,0.1 -0.1,0 -0.2,0.1 -0.2,0.4 l 0.1,0.1 c 0.1,0.1 0.2,0.2 0.3,0.2 0.1,0 0.2,0 0.3,-0.1 h 0.1 c 0,0 0.1,0 0.1,0.1 0.1,0.1 0.2,0.1 0.3,0.2 0.2,0.2 0.3,0.3 0.4,0.4 l -0.2,0.2 c -0.1,0.1 -0.2,0.2 -0.2,0.2 -0.1,0.1 -0.2,0.2 -0.2,0.2 l -0.1,0.2 c -0.1,0.1 -0.1,0.1 -0.1,0.1 l -0.6,-0.5 c -0.2,-0.1 -0.3,-0.1 -0.3,-0.1 -0.1,0.1 -0.3,0.2 -0.2,0.3 0,0.2 0.1,0.2 0.2,0.3 0.2,0.1 0.3,0.2 0.4,0.4 l -0.2,0.2 c -0.1,0.1 -0.2,0.2 -0.2,0.2 l -0.7,0.7 -0.1,0.1 -0.2,-0.2 c -0.2,-0.2 -0.4,-0.3 -0.7,-0.6 -0.1,-0.1 -0.2,-0.1 -0.4,-0.1 -0.1,0.1 -0.2,0.1 -0.2,0.3 v 0.1 c 0,0.1 0.1,0.2 0.2,0.3 0.5,0.5 0.7,0.7 0.8,0.8 z"
   id="path936"
   inkscape:connector-curvature="0"
   style="fill:#cb7b29" />
				<path
   class="st3"
   d="m 343.3,164.1 0.1,-0.1 c 0.1,-0.1 0.1,-0.1 0.1,-0.2 v -0.1 c 0.2,-0.4 0.1,-0.8 -0.1,-1.1 l -0.1,-0.2 c -0.1,-0.1 -0.2,-0.2 -0.3,-0.3 -0.2,-0.2 -0.4,-0.3 -0.7,-0.4 -0.6,-0.2 -1.4,0 -1.8,0.7 l -0.1,0.1 c -0.1,0.4 -0.1,0.8 0.2,1.1 0.1,0.2 0.3,0.3 0.4,0.6 0.1,0.2 0.1,0.3 0.1,0.4 -0.1,0.2 -0.1,0.3 -0.3,0.3 -0.5,0.3 -1,0.2 -1.2,0.2 -0.1,-0.1 -0.2,-0.1 -0.2,-0.2 -0.1,-0.1 -0.1,-0.2 0.1,-0.3 0.1,-0.1 0.1,-0.1 0.2,-0.1 l 0.1,-0.1 v -0.1 c 0.1,-0.1 0.2,-0.2 0.1,-0.3 0,-0.2 -0.2,-0.3 -0.3,-0.3 l -0.2,0.1 c -0.2,0.1 -0.3,0.2 -0.3,0.2 l -0.1,0.1 c -0.2,0.2 -0.4,0.4 -0.4,0.7 -0.1,0.2 0,0.4 0.1,0.6 l 0.1,0.2 c 0.1,0.3 0.6,0.8 1.6,0.8 0.2,0 0.3,-0.1 0.4,-0.2 0.2,-0.1 0.9,-0.4 1,-1.1 0.1,-0.2 0.1,-0.3 0.1,-0.6 -0.1,-0.4 -0.2,-0.6 -0.2,-0.6 -0.1,-0.1 -0.1,-0.1 -0.1,-0.1 l -0.1,-0.1 c -0.1,-0.1 -0.1,-0.2 -0.1,-0.3 0.1,-0.2 0.2,-0.3 0.4,-0.3 0.1,0 0.2,-0.1 0.3,0 0.2,0 0.3,0.1 0.4,0.1 h 0.1 c 0.1,0.1 0.1,0.3 0,0.4 0,0 0,0 0,0.1 l -0.2,0.2 0.1,0.1 v 0.1 c 0.1,0.1 0.1,0.1 0.1,0.2 0.4,-0.1 0.6,-0.1 0.7,-0.2 z"
   id="path938"
   inkscape:connector-curvature="0"
   style="fill:#cb7b29" />
				<path
   class="st3"
   d="m 342.3,155.1 c -11.8,-7.1 -27.6,-4.3 -37.6,6.7 -8.3,9.9 -9.9,23 -3.8,33.4 6,10.4 18,16.3 29.9,14.8 12.6,-1.6 23.1,-11.4 25.4,-23.8 2,-10.3 -2,-21.2 -9.8,-28.1 -1.3,-1.1 -2.7,-2.1 -4.1,-3 z m 12.4,26.7 c -0.6,11.6 -8.4,21.5 -19.8,25.2 -9.6,3.1 -19.5,1.1 -26.6,-5.2 -1.2,-1.2 -2.4,-2.4 -3.5,-3.8 -7.9,-10 -7.3,-24.3 1.6,-34.8 8.1,-8.9 19.5,-12.4 29.8,-9.1 11.3,3.6 19.1,15.3 18.5,27.7 z"
   id="path940"
   inkscape:connector-curvature="0"
   style="fill:#cb7b29" />
				<path
   class="st3"
   d="m 344,160.9 c -1.3,-1.1 -2.6,-2.1 -4.1,-2.9 -10.9,-6.3 -24.4,-4.2 -33.1,5.2 -7.2,8.8 -8.4,20.6 -2.9,30.1 5.3,9.3 16,14.5 26.6,13.1 11,-1.5 20.2,-10.1 22.1,-21.1 1.7,-9.2 -1.7,-18.4 -8.6,-24.4 z m -35.5,3.4 c 4.2,-4.5 9.9,-7.4 16,-8.1 l 0.4,5.5 c -4.8,0.4 -9.3,2.6 -12.7,6.2 -3,3.7 -4.6,8.4 -4.4,13.1 l -5.2,0.3 c -0.2,-6.2 1.9,-12.1 5.9,-17 z m 20.7,16.3 v 0 0.1 c -0.1,0.3 -0.2,0.7 -0.3,0.9 -0.1,0.2 -0.2,0.4 -0.3,0.5 -0.1,0.1 -0.2,0.2 -0.4,0.3 l -0.1,0.1 c -0.4,0.3 -0.8,0.4 -1.2,0.5 -0.3,0.1 -0.7,0.1 -0.9,-0.1 -0.5,-0.2 -0.9,-0.5 -1.2,-1.1 0,0 0,-0.1 -0.1,-0.1 l -0.1,-0.1 c -0.2,-0.4 -0.2,-0.9 -0.2,-1.4 v -0.1 -0.1 c 0.1,-0.2 0.1,-0.4 0.2,-0.6 0.1,-0.3 0.3,-0.7 0.6,-0.9 0.1,-0.1 0.2,-0.2 0.3,-0.3 0.2,-0.1 0.3,-0.2 0.4,-0.3 0.3,-0.1 0.5,-0.2 0.8,-0.3 0.4,-0.1 0.8,-0.1 1.2,0.1 0.5,0.1 0.8,0.4 1.1,1 0.1,0.1 0.1,0.1 0.1,0.2 v 0.1 c 0.1,0.7 0.1,1.2 0.1,1.6 z m -4.3,3.2 -5.5,6.3 c -0.2,0.2 0,0.5 0.2,0.6 0.3,0.3 0.6,0.5 0.8,0.7 0.1,0.1 0.1,0.1 0.2,0.1 -0.1,0 -0.2,0.1 -0.3,0.1 -0.2,0.1 -0.5,0.1 -0.8,0.2 l -2.8,0.6 0.3,-3.9 0.2,0.2 c 0,0 0.7,0.6 1.2,0.6 0.2,0 0.3,-0.1 0.4,-0.2 l 5.1,-5.9 c 0.2,0.1 0.6,0.4 1,0.6 z m -1.6,-6.1 c -0.1,0.2 -0.2,0.3 -0.3,0.5 l -1.8,-2.2 2.3,1.5 c 0,0 -0.1,0.1 -0.2,0.2 z m -1.9,1.2 -5.7,-0.7 c -0.3,-0.1 -0.6,0.1 -0.7,0.2 -0.1,0.2 -0.1,0.4 -0.1,0.6 0.2,0.3 0.6,0.7 1,0.8 l 3.5,0.4 -8.3,0.7 c -0.2,0 -0.3,0.2 -0.3,0.3 0.1,0.4 1.1,1 1.4,0.9 l 6.9,-0.6 -3.4,1 -0.2,0.1 -0.1,0.2 c -0.1,0.2 0.1,0.3 0.2,0.4 0.3,0.3 0.9,0.7 1.4,0.6 l 4.1,-1.2 -4,4.7 -0.6,-0.5 c -0.3,-0.4 -1.1,-0.7 -1.5,-0.6 -0.2,0.1 -0.3,0.2 -0.3,0.4 l -0.4,6.4 c 0,0.2 0.1,0.3 0.2,0.5 0.3,0.3 1,0.5 1.3,0.4 l 6.3,-1.3 c 0.3,-0.1 0.3,-0.2 0.3,-0.3 0.1,-0.2 -0.1,-0.3 -0.2,-0.5 -0.2,-0.2 -0.4,-0.4 -0.6,-0.5 -0.4,-0.3 -0.5,-0.4 -0.4,-0.8 0.1,-0.3 0.9,-1.2 1.4,-1.6 0.2,-0.2 0.4,-0.4 0.5,-0.5 l 2.1,-2.4 -0.1,5.2 c 0,0.6 0.8,1 1.3,1 0.4,0 0.7,-0.2 0.7,-0.6 l 0.1,-2.1 1,5.4 c 0.1,0.4 0.6,0.6 0.9,0.7 0.4,0.2 0.7,0.2 0.9,0.1 l 0.1,-0.2 -1.3,-7 0.6,1.5 c 0.2,0.4 1,0.7 1.4,0.7 0.2,0 0.3,0.1 0.4,-0.1 l 0.1,-0.2 -1.4,-3.4 8.5,5.5 c 0.1,0.1 0.2,0.1 0.3,0.1 -3.5,3.5 -8.5,5.5 -13.6,5.3 -5.2,-0.3 -9.6,-2.7 -12.6,-6.8 -4.8,-6.7 -4.4,-15.7 1.1,-22.3 0.2,-0.2 0.3,-0.3 0.5,-0.5 0.2,0.2 0.2,0.5 0.6,1.3 0.4,1.1 1,2 1.6,2.8 z m 8.5,4.6 c 0.1,-0.1 0.2,-0.2 0.3,-0.3 0.1,-0.1 0.2,-0.3 0.3,-0.4 l 1.9,2.4 z m 7.6,5.3 -5.3,-6.6 5.5,0.8 c 0.3,0.1 0.6,0 0.7,-0.2 0.1,-0.1 0.2,-0.3 0.1,-0.6 -0.1,-0.3 -0.6,-0.8 -1,-0.8 l -3.7,-0.6 8.5,-0.4 c 0.2,0 0.3,-0.2 0.3,-0.3 0,-0.4 -1.1,-1 -1.4,-1 l -7.1,0.3 3.7,-0.9 0.3,-0.1 -0.1,-0.2 c -0.1,-0.3 -1.1,-1.1 -1.6,-0.9 l -4,1 8,-9.1 c 0.3,0.3 0.5,0.7 0.7,1 4.5,6.6 3.9,15.8 -1.4,21.8 -0.1,0.2 -0.3,0.3 -0.4,0.4 0,-0.2 0,-0.5 -0.2,-1.1 -0.5,-0.8 -1,-1.7 -1.6,-2.5 z m 0.4,-19.7 -7.9,9 c -0.3,-0.3 -0.8,-0.7 -1.2,-0.9 l 9,-10.6 c 0.4,0.3 0.8,0.7 1.2,1.1 -0.1,0.2 -0.6,0.7 -1.1,1.4 z m -9.8,5.8 0.2,-5.2 c 0,-0.3 -0.2,-0.6 -0.5,-0.8 -0.3,-0.2 -0.8,-0.3 -1.2,-0.2 -0.2,0.1 -0.3,0.3 -0.3,0.5 l -0.1,1.9 -0.9,-5.4 c -0.1,-0.3 -0.5,-0.6 -0.8,-0.7 -0.3,-0.1 -0.7,-0.2 -0.9,-0.1 l -0.1,0.2 1.2,6.9 -0.6,-1.4 c -0.2,-0.4 -0.9,-0.7 -1.3,-0.7 -0.2,-0.1 -0.4,-0.1 -0.5,0.1 l -0.1,0.2 1.4,3.7 -8.6,-5.6 c -0.1,-0.1 -0.2,-0.1 -0.3,-0.1 6,-5.7 15,-6.9 21.6,-2.7 z m -18.3,23.5 c -4.3,-4.1 -6.8,-9.6 -7.3,-15.6 l 5.2,-0.3 c 0.7,5.5 3.6,10.4 8.3,13.5 3.3,2.3 7.3,3.4 11.3,3.4 l 0.4,5.5 c -6.7,0.3 -13.2,-2 -17.9,-6.5 z m 35.3,-1.8 c -0.3,0.4 -0.7,0.8 -1.1,1.2 0,-0.1 -0.1,-0.1 -0.1,-0.1 0,0 0,0 -0.1,-0.1 0.1,-0.1 0.1,-0.1 0.1,-0.2 l 0.2,-0.2 c 0.1,-0.1 0.2,-0.3 0.3,-0.4 l 0.1,-0.1 c 0.1,-0.2 0.2,-0.3 0.5,-0.8 l 0.1,-0.1 c 0.2,-0.3 0.6,-0.8 0.6,-0.9 0.1,-0.1 0.2,-0.2 0.2,-0.3 l 0.1,-0.2 c 0.1,-0.1 0.1,-0.2 0,-0.3 V 194 l -0.2,-0.1 h -0.1 c -0.1,-0.1 -0.1,-0.1 -0.1,-0.1 -0.1,-0.1 -0.3,-0.2 -0.4,-0.2 -0.1,0 -0.2,0.1 -0.2,0.1 0,0 -0.1,0.1 -0.1,0.1 l -0.2,0.1 c -0.1,0.1 -0.1,0.1 -0.2,0.1 -0.1,0 -0.1,0.1 -0.1,0.1 -0.1,0 -0.1,0.1 -0.1,0.1 -0.1,0 -0.1,0.1 -0.1,0.1 l 0.1,-0.1 c 0.1,-0.2 0.2,-0.3 0.2,-0.4 l 0.1,-0.2 c 0.1,-0.1 0.1,-0.2 0.2,-0.3 0.1,-0.2 0.1,-0.3 -0.1,-0.4 l -0.1,-0.1 -0.1,-0.1 -0.2,-0.1 c -0.3,-0.2 -0.5,-0.4 -0.7,-0.2 l -0.1,0.1 c -0.2,0.1 -0.3,0.2 -0.4,0.3 -0.1,0.1 -0.2,0.1 -0.2,0.2 l -0.2,0.1 c -0.1,0 -0.1,0.1 -0.2,0.1 -0.2,0.1 -0.3,0.2 -0.4,0.3 l -0.1,0.1 c -0.1,0.1 -0.1,0.1 -0.2,0.1 l -1.3,0.9 c 0,0 0,0 -0.1,0 l -0.1,-0.1 c -0.2,-0.1 -0.3,-0.1 -0.4,0 -0.1,0.1 -0.2,0.2 -0.2,0.4 v 0.1 l 0.1,0.1 c 0.2,0.2 0.9,0.8 1.1,0.9 0.1,0 0.1,0.1 0.1,0.1 0.2,0.1 0.3,0 0.4,-0.1 0.1,-0.2 0.1,-0.3 -0.1,-0.4 h -0.1 c 0.1,-0.1 0.3,-0.2 0.5,-0.4 0.2,-0.2 0.4,-0.3 0.6,-0.4 0.1,-0.1 0.1,-0.1 0.2,-0.1 0.1,-0.1 0.2,-0.1 0.2,-0.2 0.1,-0.1 0.3,-0.2 0.4,-0.3 0.1,-0.1 0.2,-0.1 0.2,-0.2 -0.1,0.1 -0.1,0.1 -0.1,0.2 -0.1,0.2 -0.2,0.3 -0.2,0.4 -0.1,0.1 -0.1,0.2 -0.1,0.2 -0.1,0.1 -0.2,0.2 -0.2,0.3 v 0.1 c -0.1,0.1 -0.1,0.2 -0.1,0.3 0,0.1 0.1,0.2 0.3,0.3 0.1,0.1 0.3,0 0.3,-0.1 0.1,-0.1 0.1,-0.1 0.3,-0.3 0.1,-0.1 0.2,-0.1 0.3,-0.2 l -0.2,0.3 c 0,0.1 -0.1,0.1 -0.1,0.1 -0.1,0.1 -0.1,0.2 -0.1,0.2 l -0.3,0.5 c -0.1,0.2 -0.2,0.3 -0.3,0.4 l -0.1,0.1 -0.1,0.1 c -0.1,-0.1 -0.2,-0.1 -0.3,0 h -0.2 l -0.1,0.2 c -0.1,0.1 0,0.3 0.2,0.4 0.1,0.1 0.4,0.3 0.4,0.4 l 0.1,0.1 c 0.3,0.2 0.4,0.3 0.6,0.4 -3.9,3.7 -8.9,6 -14.4,6.6 l -0.4,-5.5 c 5,-0.4 9.5,-2.6 12.7,-6.3 3.2,-3.6 4.8,-8.3 4.5,-13.1 l 5.2,-0.3 c 0.3,6.1 -1.8,12.1 -5.8,16.8 z m 0.7,-18.1 c -0.5,-3.8 -2.2,-7.5 -4.8,-10.4 -0.8,-0.9 -1.8,-1.8 -2.7,-2.5 -0.1,-0.1 -0.1,-0.1 -0.2,-0.2 l -0.2,-0.2 c -0.1,-0.1 -0.2,-0.2 -0.4,-0.3 -0.1,-0.1 -0.2,-0.1 -0.2,-0.2 -0.1,-0.1 -0.1,-0.1 -0.2,-0.1 -3.3,-2.1 -7,-3.2 -10.9,-3.2 l -0.4,-5.5 c 6.7,-0.4 13,1.9 17.8,6.5 4.2,4 6.8,9.6 7.3,15.6 z"
   id="path942"
   inkscape:connector-curvature="0"
   style="fill:#cb7b29" />
				
					<circle
   transform="matrix(0.6584,-0.7527,0.7527,0.6584,-39.4282,297.9805)"
   class="st3"
   cx="308.60001"
   cy="192.39999"
   id="ellipse944"
   r="1.6"
   style="fill:#cb7b29" />
				
					<circle
   transform="matrix(0.6584,-0.7527,0.7527,0.6584,-35.7539,293.8846)"
   class="st3"
   cx="305.89999"
   cy="186.3"
   id="ellipse946"
   r="1.6"
   style="fill:#cb7b29" />
				<path
   class="st3"
   d="m 306.4,175 c -0.3,-0.3 -0.7,-0.4 -1.1,-0.4 -0.4,0.2 -0.8,0.3 -1.1,0.6 -0.3,0.3 -0.4,0.7 -0.4,1.1 0.1,0.8 0.8,1.5 1.7,1.4 0.8,-0.1 1.5,-0.8 1.4,-1.7 -0.1,-0.4 -0.2,-0.7 -0.5,-1 z"
   id="path948"
   inkscape:connector-curvature="0"
   style="fill:#cb7b29" />
				<path
   class="st3"
   d="m 307.9,171.6 c 0.4,-0.1 0.7,-0.3 1,-0.6 0.3,-0.3 0.4,-0.7 0.4,-1.1 -0.1,-0.4 -0.2,-0.8 -0.5,-1.1 -0.3,-0.3 -0.7,-0.4 -1.1,-0.4 -0.4,0.1 -0.8,0.2 -1.1,0.6 -0.3,0.3 -0.4,0.7 -0.4,1.1 0.1,0.4 0.2,0.8 0.6,1.1 0.3,0.3 0.7,0.4 1.1,0.4 z"
   id="path950"
   inkscape:connector-curvature="0"
   style="fill:#cb7b29" />
				<path
   class="st3"
   d="m 315.7,163.5 c 0.3,-0.3 0.4,-0.7 0.3,-1.1 -0.1,-0.4 -0.2,-0.8 -0.5,-1 -0.3,-0.3 -0.7,-0.4 -1.1,-0.3 -0.4,0.1 -0.8,0.2 -1.1,0.6 -0.6,0.5 -0.4,1.5 0.2,2.1 0.7,0.4 1.6,0.3 2.2,-0.3 z"
   id="path952"
   inkscape:connector-curvature="0"
   style="fill:#cb7b29" />
				<path
   class="st3"
   d="m 319.5,160.8 c 0.7,0.6 1.6,0.4 2.2,-0.2 0.3,-0.3 0.4,-0.7 0.3,-1.1 -0.1,-0.4 -0.2,-0.8 -0.5,-1 -0.3,-0.3 -0.7,-0.4 -1.1,-0.3 -0.4,0.1 -0.8,0.2 -1.1,0.6 -0.3,0.3 -0.4,0.7 -0.3,1.1 0,0.3 0.3,0.7 0.5,0.9 z"
   id="path954"
   inkscape:connector-curvature="0"
   style="fill:#cb7b29" />
				<path
   class="st3"
   d="m 331.7,157.9 c -0.3,-0.3 -0.7,-0.4 -1.2,-0.4 -0.8,0.1 -1.4,0.8 -1.4,1.7 0.1,0.4 0.2,0.8 0.6,1.1 0.3,0.3 0.7,0.4 1.1,0.3 0.4,-0.1 0.8,-0.2 1.1,-0.6 0.3,-0.3 0.4,-0.7 0.3,-1.1 0,-0.4 -0.3,-0.8 -0.5,-1 z"
   id="path956"
   inkscape:connector-curvature="0"
   style="fill:#cb7b29" />
				<path
   class="st3"
   d="m 336.8,159.7 c -0.4,0.1 -0.8,0.2 -1.1,0.6 -0.3,0.3 -0.4,0.7 -0.3,1.1 0.1,0.4 0.2,0.8 0.6,1.1 0.3,0.3 0.7,0.4 1.1,0.3 0.8,-0.1 1.4,-0.8 1.4,-1.7 -0.1,-0.4 -0.2,-0.7 -0.5,-1 -0.4,-0.3 -0.8,-0.4 -1.2,-0.4 z"
   id="path958"
   inkscape:connector-curvature="0"
   style="fill:#cb7b29" />
				<path
   class="st3"
   d="m 343.6,169.1 c 0.3,0.3 0.7,0.4 1.1,0.3 0.4,-0.1 0.8,-0.2 1.1,-0.6 0.3,-0.3 0.4,-0.7 0.3,-1.1 -0.1,-0.4 -0.2,-0.7 -0.5,-1 0,0 0,0 -0.1,-0.1 -0.7,-0.6 -1.6,-0.4 -2.2,0.2 -0.4,0.8 -0.3,1.7 0.3,2.3 z"
   id="path960"
   inkscape:connector-curvature="0"
   style="fill:#cb7b29" />
				<path
   class="st3"
   d="m 345.9,174 c 0.1,0.4 0.2,0.8 0.6,1.1 0.7,0.6 1.6,0.4 2.2,-0.2 0.5,-0.7 0.4,-1.6 -0.2,-2.1 0,0 0,0 -0.1,-0.1 -0.7,-0.6 -1.6,-0.4 -2.2,0.2 -0.2,0.4 -0.3,0.7 -0.3,1.1 z"
   id="path962"
   inkscape:connector-curvature="0"
   style="fill:#cb7b29" />
				<path
   class="st3"
   d="m 347.3,185.2 c 0.3,0.3 0.7,0.4 1.1,0.3 0.4,0 0.8,-0.2 1,-0.6 0.3,-0.3 0.4,-0.7 0.3,-1.1 -0.1,-0.4 -0.2,-0.7 -0.5,-1 -0.3,-0.3 -0.7,-0.4 -1.2,-0.4 -0.8,0.1 -1.4,0.8 -1.3,1.7 0.2,0.4 0.3,0.8 0.6,1.1 z"
   id="path964"
   inkscape:connector-curvature="0"
   style="fill:#cb7b29" />
				<path
   class="st3"
   d="m 344.6,190.4 c 0.1,0.4 0.2,0.8 0.6,1.1 0.3,0.3 0.7,0.4 1.1,0.3 0.4,-0.1 0.8,-0.2 1.1,-0.6 0.3,-0.3 0.4,-0.7 0.3,-1.1 -0.1,-0.4 -0.2,-0.7 -0.5,-1 -0.3,-0.3 -0.7,-0.4 -1.2,-0.4 -0.9,0.2 -1.5,0.9 -1.4,1.7 z"
   id="path966"
   inkscape:connector-curvature="0"
   style="fill:#cb7b29" />
				<path
   class="st3"
   d="m 338.4,197.1 c -0.6,0.7 -0.4,1.6 0.2,2.2 0.7,0.5 1.6,0.4 2.2,-0.3 0.5,-0.7 0.4,-1.6 -0.2,-2.1 l -0.1,-0.1 c -0.6,-0.4 -1.5,-0.3 -2.1,0.3 z"
   id="path968"
   inkscape:connector-curvature="0"
   style="fill:#cb7b29" />
				<path
   class="st3"
   d="m 334.7,199.9 c -0.7,-0.5 -1.6,-0.4 -2.2,0.3 -0.3,0.3 -0.4,0.7 -0.3,1.1 0.1,0.4 0.2,0.8 0.6,1 0.7,0.5 1.6,0.4 2.2,-0.2 0.4,-0.7 0.3,-1.6 -0.3,-2.2 z"
   id="path970"
   inkscape:connector-curvature="0"
   style="fill:#cb7b29" />
				<path
   class="st3"
   d="m 324.6,200.9 v 0 c -0.4,-0.3 -0.8,-0.4 -1.2,-0.4 -0.8,0.1 -1.4,0.9 -1.3,1.7 0.1,0.8 0.8,1.4 1.7,1.3 0.8,-0.1 1.4,-0.9 1.3,-1.7 -0.1,-0.3 -0.2,-0.7 -0.5,-0.9 z"
   id="path972"
   inkscape:connector-curvature="0"
   style="fill:#cb7b29" />
				<path
   class="st3"
   d="m 318.3,198.9 v 0 c -0.4,-0.3 -0.8,-0.4 -1.2,-0.4 -0.4,0.1 -0.8,0.3 -1,0.6 -0.3,0.3 -0.4,0.7 -0.3,1.1 0.1,0.9 0.8,1.5 1.7,1.4 0.8,-0.1 1.4,-0.9 1.3,-1.7 -0.1,-0.5 -0.3,-0.8 -0.5,-1 z"
   id="path974"
   inkscape:connector-curvature="0"
   style="fill:#cb7b29" />
				<path
   class="st3"
   d="m 351.7,156.2 c 0.2,0.2 0.7,0.4 0.9,0.2 l 0.6,-0.7 c 4.5,1.9 9,1.2 12.1,-1.9 1.9,-1.9 2.9,-4.2 2.9,-6.7 -0.1,-2.8 -1.4,-5.7 -3.8,-7.9 -0.1,-0.1 -0.3,-0.2 -0.4,-0.3 -4.2,-3.7 -9.7,-3.5 -15.4,0.4 -4.8,3.9 -3.9,8.8 -1.3,12 l -0.3,0.4 c -0.1,0.1 -0.1,0.3 0.1,0.5 l 0.7,0.6 c -0.1,0.2 -0.2,0.3 -0.3,0.4 l -0.4,-0.4 c -0.2,-0.2 -0.6,-0.4 -0.9,-0.1 l -1.6,1.8 c -1,-0.7 -1.8,-1.2 -2.7,-1.7 -9.3,-5 -20.1,-5.1 -29.3,-0.7 -1,-1.9 -2.3,-3.9 -2.3,-3.9 -0.9,-1.3 -1.8,-2.5 -2.7,-3.7 -0.6,-0.7 -1.2,-1.5 -1.7,-2.3 -7.3,-9.9 -14.1,-19.5 -20.4,-28.6 l -0.2,-0.3 c -2.9,-4.1 -7.1,-10.3 -12.5,-10.7 H 272 c -4.7,0 -7.9,3.7 -10.6,6.8 -0.2,0.3 -0.6,0.6 -0.8,1 -4.9,-8.8 -10.2,-17.1 -16.3,-25.1 -1.8,-2.5 -4.1,-4.5 -6.2,-6.4 -1.4,-1.2 -2.7,-2.5 -4.1,-3.9 l -0.6,-0.6 c -2.1,-2.2 -4.2,-4.5 -7.1,-4.5 -1.2,0 -2.4,0.3 -3.6,1.1 -7.5,4.4 -12.2,12.7 -16.3,20.1 -0.9,1.6 -1.7,3.1 -2.5,4.5 -1,1.5 -1.9,3.1 -2.9,4.6 -1.4,2.3 -2.9,4.6 -4.2,7 -0.5,0.9 -1,1.8 -1.4,2.7 -1.7,3.3 -3.5,6.8 -5.5,9.8 -0.9,-1.4 -3.1,-4 -8.2,-8.7 -0.2,-0.2 -0.5,-0.5 -0.7,-0.7 -2.5,-2.4 -5.5,-5.1 -8.7,-5.1 -1.6,0 -3.1,0.6 -4.5,1.8 -2.6,2.2 -4.8,5.1 -6.8,7.9 -0.9,1.2 -1.8,2.5 -2.8,3.7 -2.5,3.2 -4.8,6.7 -6.8,10.1 -1,1.7 -2.1,3.4 -3.3,5.1 -1.2,1.8 -3.1,4.4 -4.2,6.2 1.2,-0.3 3.2,-1.2 4.4,-1.5 1,-1.8 1.8,-3.1 2.1,-3.5 0.4,-0.6 0.9,-1.5 1.4,-2.5 1.2,-2.3 2.6,-5.1 4.1,-6 1.4,-0.9 2.3,-1.8 3.4,-2.9 l 0.4,-0.4 c 0.2,-0.2 0.4,-0.2 0.6,-0.4 0.4,-0.2 1,-0.4 1.5,-1.2 0,-0.1 0.1,-0.1 0.1,-0.2 -0.1,0.5 -0.2,1 -0.3,1.5 -0.2,0.9 -0.5,1.7 -0.5,2.7 0,0.2 -0.3,1 -0.6,1.7 -0.6,1.7 -1.2,3.1 -0.5,3.9 0.2,0.2 0.6,0.4 0.9,0.4 1.4,0 2.9,-2.3 5.3,-6.1 0.6,-1 1.4,-2.2 2,-3 1,4.5 1.7,6.1 2.9,6.1 0.2,0 0.4,-0.1 0.6,-0.2 0.9,-0.5 1.4,-1.8 2,-3.4 0.3,-0.9 1.1,-2.8 1.5,-2.9 0,0 0.2,0.1 0.6,0.7 0.2,0.2 0.5,1 0.8,1.7 1.2,2.9 1.7,4.1 2.5,4.4 0.3,0.2 0.6,0.2 0.9,0.2 1.8,0 2.5,-2.4 3,-4.5 0.1,-0.4 0.2,-1 0.4,-1.4 0.5,1 1,2 2.1,2.2 h 0.2 c 0.7,0 1.3,-0.6 1.9,-1.4 0,-0.1 0.1,-0.1 0.2,-0.2 -1.4,3 -3.1,6 -4.8,8.9 -1,1.7 -2,3.4 -2.9,5.2 -0.6,1 -13.2,26.1 -14,27.3 -1.9,3.3 -4.1,6.9 -4.8,10.2 -0.1,0.5 -0.2,1 0.2,1.3 0.2,0.2 0.4,0.3 0.6,0.3 1,0 2.5,-2.5 2.5,-2.6 0.5,-1 1,-1.9 1.4,-2.9 0.7,-1.4 1.4,-2.9 2.1,-4.4 2.5,-4.8 17.1,-33.7 19.8,-38.4 l 1.1,-2.1 c 0.2,-0.3 0.5,-1 1,-2 3.3,-6.8 5.3,-10.5 6.3,-11 0.3,0.5 0.7,2.2 1,3.3 0.6,2.5 1,4.4 2.2,4.4 0.9,0 1.6,-0.9 2.5,-3.3 0.2,-0.6 0.4,-1 0.6,-1.6 0.4,-1.3 0.8,-2.3 1.5,-3.6 1.5,-2.7 2.3,-4.9 2.5,-7 0.2,-2 2.9,-4.9 5,-6.8 0,0.8 -0.2,1.8 -0.4,2.8 -0.5,2.4 -1,4.8 0.7,5.9 0.2,0.2 0.5,0.2 0.8,0.2 1.7,0 2.7,-2.8 3.7,-5.6 0.1,-0.3 0.2,-0.7 0.3,-0.8 1.7,-3.5 3.8,-6.9 5.2,-9.1 0.3,-0.5 0.5,-0.6 0.6,-0.7 0.4,0.5 0.6,2.7 0.8,3.5 0.2,1.4 0.2,1.8 0.6,2.1 0.7,0.5 0.5,2.5 0.4,4.1 -0.2,1.6 -0.2,3.2 0.2,4.1 0.3,0.6 0.5,1.5 0.6,2.4 0.3,1.5 0.6,2.9 1.8,2.9 0.7,0 1.4,-0.6 2.3,-1.7 2,-2.6 3.1,-7.9 3.3,-10.8 0.1,-1.7 0.2,-3 0.6,-4.4 0.1,-0.2 0.1,-0.5 0.1,-0.7 0.1,1.7 0.2,3.3 0.4,5.1 0.2,1 0.3,1.8 0.5,2.7 0.2,1.1 0.4,2.2 0.6,3.3 0,0.1 1.1,4.4 2.5,4.4 0.6,0 1,-0.5 1,-1.4 0.1,-1 0.4,-1.8 0.8,-2.8 0.4,-1.1 0.9,-2.2 0.9,-3.4 0,-2.1 0.5,-5 1.7,-6 0.1,-0.1 0.1,-0.1 0.1,-0.1 0.3,0 0.8,0.5 1.2,0.8 0.2,0.2 0.6,0.5 0.8,0.6 0.6,0.3 1.2,0.5 1.7,0.5 0.5,0 1.1,-0.2 1.5,-0.3 0.4,-0.1 0.6,-0.2 1,-0.2 0.2,0 0.4,0.1 0.6,0.2 2.9,1.6 4.7,5.2 6.4,8.5 0.6,1.2 1.2,2.4 1.8,3.4 0.2,0.2 0.4,0.6 0.7,1 0.5,0.6 1.5,2.1 1.7,2.6 -2.4,2.7 -4.7,5.6 -6.9,8.3 -3.6,4.6 -6.8,9.5 -9.9,14.4 -0.6,1 -1.3,1.9 -1.9,2.9 -0.2,0.3 -0.5,0.6 -0.6,1 -1.3,1.8 -14.4,25.9 -15.3,28.1 -0.1,0.2 -0.2,0.6 -0.4,1 -1.3,2.8 -2.4,5.3 -1.4,6.7 0.2,0.4 0.6,0.5 0.8,0.5 0.6,0 1.3,-0.6 2.1,-3.2 v -0.1 l 0.2,-0.3 c 0.8,-2 1.5,-4 2.5,-5.8 0.5,-0.9 12.8,-23.8 13.3,-24.7 1.1,-2.1 2.2,-4.1 3.5,-6 -0.4,1.7 -0.6,3.6 0.9,4.3 0.2,0.1 0.4,0.2 0.6,0.2 1.7,0 3.3,-2.7 5,-5.4 0.2,-0.3 0.3,-0.6 0.5,-0.7 0.6,-1 1.2,-2 1.7,-2.9 1,-1.7 1.8,-3.2 3.1,-4.6 0,0.1 -0.1,0.1 -0.1,0.2 -0.2,0.6 -0.5,1.2 -0.6,1.8 -0.2,0.6 0,1.1 0.2,1.4 0.3,0.4 0.8,0.6 1.4,0.6 0.5,0 1,-0.2 1.4,-0.5 1.4,-1 2.4,-2.3 3.4,-3.6 0.2,-0.3 0.5,-0.6 0.7,-0.9 0.1,-0.1 0.2,-0.2 0.3,-0.4 0.5,-0.6 1.4,-1.7 2,-1.7 h 0.1 c 0.3,0.5 0.5,2.5 0.5,3.1 0,0.4 0.1,0.6 0.1,0.9 0.1,0.6 0.2,1.2 0.4,1.7 0.3,1.1 0.6,2.1 0.3,3.3 -0.3,1.7 -0.6,3.5 0.2,5.5 0.6,1.4 1.5,2.4 2.4,3.4 0.8,1 1.5,1.8 2.1,2.9 0.3,0.6 0.8,0.8 1,0.8 1.9,0 3.3,-6.8 3.3,-6.9 0.1,-0.8 -0.2,-1.5 -0.5,-2.2 -0.2,-0.6 -0.4,-1 -0.4,-1.5 v -1 c 0,-1.7 0.1,-3.5 0.4,-5.2 0.1,-0.5 0.7,-3.2 1.2,-4.7 0.1,0.1 0.1,0.2 0.2,0.2 0.2,0.5 0.5,1 0.9,1.3 0.6,0.6 1.4,0.9 2,1 0.9,0.3 1.4,0.5 1.6,1.1 v 0.4 c 0,1 0,2.5 1.2,2.5 0.3,0 0.6,-0.1 0.9,-0.3 1.7,-1.4 1.7,-3.5 1.7,-5.2 v -1.4 c 0.8,1.2 1.7,1.4 2.7,1.7 0.5,0.2 1,0.2 1.4,0.5 2.9,1.5 4.1,3.8 5.6,6.5 0.6,1.1 1.3,2.3 2.1,3.4 1.3,1.8 2.7,3.7 4,5.3 1.3,1.6 2.5,3.3 3.7,5 0.6,0.7 1,1.7 1.6,2.5 0.8,1.3 2.5,4 4.1,6 -2.8,1.6 -5.4,3.7 -7.7,6.2 -9.6,11.4 -10.9,27.1 -3.3,38.3 6.8,9.8 19.5,15.4 32.4,14.2 14.7,-1.3 25.9,-12.2 27.4,-26.4 0.9,-9.5 -2.4,-19.3 -9,-26.4 l 1.6,-1.9 c 0.2,-0.2 0.1,-0.5 -0.1,-0.7 L 351,156 c 0.2,-0.1 0.3,-0.2 0.4,-0.3 z m -1.4,-15.7 c 5.4,-3.8 10.5,-3.5 14,0.8 2.9,3.5 2.7,8.2 -0.4,11.3 -2.5,2.4 -5.9,3 -9.4,1.9 l 1.6,-1.8 c 0.1,-0.1 0.1,-0.3 -0.1,-0.5 l -4.6,-4 c 0.1,-0.1 -0.6,-0.6 -0.9,-0.2 l -1.7,2 c -2.4,-3.3 -1.7,-6.8 1.5,-9.5 z m 7,43 c -0.6,12.4 -8.5,22.7 -20.2,26.2 -11.2,3.3 -23.4,0.6 -31.5,-6.5 -2.3,-2 -4.3,-4.4 -5.8,-7 -6,-10.8 -4.3,-25 4.5,-35.4 8.9,-9.8 22.8,-13 34.5,-8 11.6,4.7 19.2,17.4 18.5,30.7 z m -8.1,-25.1 c -1.1,-1.1 -2.4,-2.2 -3.7,-3.2 l 1.2,-1.4 0.5,0.4 c 0.1,0.6 0.3,1.1 0.8,1.6 0.5,0.5 1.2,0.7 1.8,0.7 l 0.6,0.5 z m 1.6,-4.1 c 0,0.2 -0.1,0.3 -0.1,0.4 0,0.1 -0.1,0.1 -0.1,0.1 0,0.1 -0.1,0.1 -0.1,0.1 -0.1,0.1 -0.1,0.1 -0.1,0.2 -0.2,0.2 -0.3,0.3 -0.6,0.4 -0.2,0.1 -0.4,0.1 -0.6,0.1 -0.2,-0.1 -0.3,-0.1 -0.4,-0.2 -0.1,-0.1 -0.1,-0.1 -0.2,-0.2 -0.1,-0.1 -0.1,-0.1 -0.1,-0.2 v -0.1 c -0.1,-0.3 -0.1,-0.5 -0.1,-0.7 0.1,-0.3 0.2,-0.6 0.3,-0.8 l 0.1,-0.1 c 0,0 0.1,-0.1 0.1,-0.1 0.1,-0.1 0.2,-0.1 0.3,-0.2 0.3,-0.1 0.8,-0.3 1.2,0.2 0.4,0.3 0.5,0.7 0.4,1.1 z m -0.3,-2.2 c -0.6,-0.2 -1.2,-0.2 -1.7,0.1 -0.1,0.1 -0.2,0.1 -0.2,0.1 -0.2,-0.1 -0.2,-0.1 -0.2,-0.2 l 0.1,-0.1 c 0.2,-0.2 0.4,-0.5 0.7,-0.7 l 1.9,-2.2 1.2,1.1 c 0.3,0.2 0.6,0.4 0.9,0.7 0.6,0.4 1.2,0.9 1.6,1.4 -0.3,0.3 -0.5,0.6 -0.7,0.8 l -1.9,2.2 -0.1,-0.1 c 0.1,-0.2 0.1,-0.3 0.2,-0.5 0.1,-0.6 0,-1.1 -0.3,-1.6 -0.4,-0.5 -0.9,-0.8 -1.5,-1 z"
   id="path976"
   inkscape:connector-curvature="0"
   style="fill:#cb7b29" />
			</g>
		</g>
	</g>
	<g
   id="g986">
		<path
   class="st1"
   d="m 156,248 c -1.2,-0.3 -7.2,-1.7 -12.7,-3.6 -5.5,-1.9 -10.7,-4.2 -10.2,-7.6 0.6,-4.6 6.5,-2.2 12,1.7 5.5,4 10.4,9.4 10.9,9.5 z"
   id="path984"
   inkscape:connector-curvature="0"
   style="fill:#c87b33" />
	</g>
	<g
   id="g990">
		<path
   class="st1"
   d="m 155.8,257.2 c -0.6,0.4 -2.3,1.3 -4.5,2.6 -2.2,1.3 -4.9,2.9 -7.6,4.5 -5.4,3.1 -10.5,6.1 -13.1,3.7 -1.7,-1.6 -1.2,-3.3 0.8,-4.9 2,-1.6 5.3,-3 8.9,-4 3.6,-1 7.4,-1.5 10.3,-1.7 2.9,-0.1 5,0 5.2,-0.2 z"
   id="path988"
   inkscape:connector-curvature="0"
   style="fill:#c87b33" />
	</g>
	<g
   id="g994">
		<path
   class="st1"
   d="m 160.7,270.1 c -0.4,0.5 -1.6,1.8 -3.1,3.6 -1.5,1.8 -3.2,4.1 -4.9,6.3 -3.4,4.4 -6.2,8.9 -9.5,8 -2.2,-0.6 -2.6,-2.3 -1.6,-4.5 1,-2.2 3.3,-4.8 6.1,-6.9 2.8,-2.1 6,-3.8 8.5,-4.8 2.5,-1 4.3,-1.5 4.5,-1.7 z"
   id="path992"
   inkscape:connector-curvature="0"
   style="fill:#c87b33" />
	</g>
	<g
   id="g998">
		<path
   class="st1"
   d="m 254.3,243.3 c 0.2,-0.8 1.4,-4.8 2.8,-8.3 1.5,-3.5 3.3,-6.6 6.6,-5.6 2.2,0.6 2.8,1.9 2.4,3.4 -0.4,1.5 -1.8,3.3 -3.5,4.9 -1.7,1.6 -3.8,2.9 -5.4,3.9 -1.6,0.9 -2.8,1.5 -2.9,1.7 z"
   id="path996"
   inkscape:connector-curvature="0"
   style="fill:#c87b33" />
	</g>
	<g
   id="g1002">
		<path
   class="st1"
   d="m 259.2,251.6 c 0.8,-0.6 5.1,-3.6 9.7,-5.6 4.6,-2 9.4,-2.9 10.8,0.2 2,4.2 -2.9,5.2 -8.4,5.4 -5.5,0.3 -11.7,-0.3 -12.1,0 z"
   id="path1000"
   inkscape:connector-curvature="0"
   style="fill:#c87b33" />
	</g>
	<g
   id="g1006">
		<path
   class="st1"
   d="m 262.4,260.3 c 1.1,-0.2 6.8,-1.3 12.1,-1.7 5.4,-0.4 10.6,-0.3 11.5,3 1.2,4.5 -4.7,4.6 -10.8,3.1 -6.2,-1.5 -12.3,-4.6 -12.8,-4.4 z"
   id="path1004"
   inkscape:connector-curvature="0"
   style="fill:#c87b33" />
	</g>
</g>
</svg>