<?xml version="1.0" encoding="UTF-8" standalone="no"?>
<!-- Generator: Adobe Illustrator 18.1.1, SVG Export Plug-In . SVG Version: 6.00 Build 0)  -->

<svg
   xmlns:dc="http://purl.org/dc/elements/1.1/"
   xmlns:cc="http://creativecommons.org/ns#"
   xmlns:rdf="http://www.w3.org/1999/02/22-rdf-syntax-ns#"
   xmlns:svg="http://www.w3.org/2000/svg"
   xmlns="http://www.w3.org/2000/svg"
   xmlns:xlink="http://www.w3.org/1999/xlink"
   xmlns:sodipodi="http://sodipodi.sourceforge.net/DTD/sodipodi-0.dtd"
   xmlns:inkscape="http://www.inkscape.org/namespaces/inkscape"
   version="1.1"
   id="Capa_1"
   x="0px"
   y="0px"
   viewBox="0 0 23 30.000001"
   xml:space="preserve"
   sodipodi:docname="avatar.svg"
   width="23"
   height="30"
   inkscape:version="0.92.3 (2405546, 2018-03-11)"><metadata
   id="metadata73"><rdf:RDF><cc:Work
       rdf:about=""><dc:format>image/svg+xml</dc:format><dc:type
         rdf:resource="http://purl.org/dc/dcmitype/StillImage" /><dc:title></dc:title></cc:Work></rdf:RDF></metadata><defs
   id="defs71"><linearGradient
   inkscape:collect="always"
   id="linearGradient981"><stop
     style="stop-color:#999999;stop-opacity:1"
     offset="0"
     id="stop977" /><stop
     style="stop-color:#333333;stop-opacity:1"
     offset="1"
     id="stop979" /></linearGradient>
	
	
	
	
	
	
	
	
	
	
	
	
	
	
	
	
	
<linearGradient
   inkscape:collect="always"
   xlink:href="#linearGradient981"
   id="linearGradient983"
   x1="4.8902712"
   y1="4.8877969"
   x2="15.728169"
   y2="26.695763"
   gradientUnits="userSpaceOnUse"
   gradientTransform="matrix(1,0,0,0.99996849,-2.1003439e-4,0)" /></defs><sodipodi:namedview
   pagecolor="#ffffff"
   bordercolor="#666666"
   borderopacity="1"
   objecttolerance="10"
   gridtolerance="10"
   guidetolerance="10"
   inkscape:pageopacity="0"
   inkscape:pageshadow="2"
   inkscape:window-width="1366"
   inkscape:window-height="705"
   id="namedview69"
   showgrid="false"
   inkscape:zoom="7.5660427"
   inkscape:cx="15.596"
   inkscape:cy="15.596"
   inkscape:window-x="-8"
   inkscape:window-y="-8"
   inkscape:window-maximized="1"
   inkscape:current-layer="Capa_1" />















<path
   style="fill:url(#linearGradient983);fill-opacity:1;stroke-width:0.96012443"
   d="m 11.841587,9.0729001e-8 c 0,0 -0.247445,0.127269869270999 -0.474609,0.402331069270999 -0.177323,0.10002225 -0.580691,0.37669604 -0.716797,0.86911334 l -0.128907,-0.064451 c 0.06326,-0.139454 0.152668,-0.28742327 0.273438,-0.43553314 0,0 -0.174765,0.15618158 -0.328125,0.40623724 L 10.206821,1.0468421 c 0.07764,-0.14522465 0.178383,-0.29520597 0.316407,-0.44139234 0,0 -0.139501,0.10728218 -0.28711,0.28905339 0.04122,-0.16926843 0.03307,-0.36221453 -0.4921874,0.21483705 0,0 -2.3664128,1.0298046 -3.0507812,3.1620097 0,0 -0.4010716,0.9624413 0.1328125,3.7948022 C 6.067789,7.7064568 6.5837744,9.568058 6.5837744,9.568058 c 0.077638,0.497226 0.2846289,0.713295 0.4121094,0.804663 0.3019273,2.512096 2.4567713,5.117025 4.4121092,5.117025 2.246723,0 4.382245,-2.73765 4.714844,-5.117025 0.126522,-0.09041 0.334434,-0.308399 0.410156,-0.804663 0,0 0.481188,-1.7217174 -0.154297,-1.537061 0.222372,-0.6645709 0.954622,-3.2511718 -0.46875,-4.8592218 0,0 -0.664334,-0.912679 -2.285156,-1.3964404 -0.05655,-0.047125 -0.113551,-0.09641 -0.179688,-0.1425736 0,0 0.03517,0.041147 0.08789,0.1132777 -0.09202,-0.025967 -0.1903,-0.049181 -0.287109,-0.072263 -0.08722,-0.092328 -0.185689,-0.1861163 -0.296875,-0.2871003 0,0 0.09695,0.099263 0.214843,0.2675697 -0.04505,-0.00962 -0.08482,-0.019648 -0.128906,-0.027343 -0.0738,-0.1125251 -0.163282,-0.2283584 -0.277344,-0.3456922 0,0 0.04902,0.090076 0.111329,0.2324145 -0.299052,-0.2202413 -0.898438,-0.72942978 -0.898438,-1.29878723 0,0 -0.376207,0.17680587 -0.595703,0.49803117 C 11.461049,0.44838663 11.605795,0.20293015 11.841586,3.90729e-7 Z M 11.296665,0.49607821 c -0.11502,0.16061265 -0.213794,0.36020277 -0.261719,0.60544969 l -0.08398,-0.031249 c 0.06422,-0.20581501 0.173173,-0.40397052 0.345703,-0.57420069 z M 14.943149,14.501496 c -3.952851,7.814239 -6.9511715,0.02149 -6.9511715,0.02149 -0.2750893,1.054076 -4.3398438,2.29289 -4.3398437,2.29289 C 2.4655116,17.274632 1.9626806,17.962325 1.9626806,17.962325 0.204793,20.575406 -2.1003439e-4,26.395653 -2.1003439e-4,26.395653 0.02279395,27.722871 0.59158685,27.86045 0.59158685,27.86045 4.6345367,29.670469 10.972446,29.993196 10.972446,29.993196 c 6.510127,0.137531 11.248047,-1.85541 11.248047,-1.85541 0.687244,-0.434713 0.707031,-0.781226 0.707031,-0.781226 0.480208,-4.169196 -1.576171,-8.866908 -1.576172,-8.866908 -0.618231,-1.376268 -4.384765,-2.566325 -4.384765,-2.566325 -2.009014,-0.710735 -2.023438,-1.421831 -2.023438,-1.421831 z"
   id="path2"
   inkscape:connector-curvature="0" /><g
   id="g6"
   transform="matrix(0.95849924,0,0,0.96178275,-3.4486803,-5.1209142e-8)">
	</g><g
   id="g8"
   transform="matrix(0.95849924,0,0,0.96178275,-3.4486803,-5.1209142e-8)">
	</g><g
   id="g10"
   transform="matrix(0.95849924,0,0,0.96178275,-3.4486803,-5.1209142e-8)">
	</g><g
   id="g12"
   transform="matrix(0.95849924,0,0,0.96178275,-3.4486803,-5.1209142e-8)">
	</g><g
   id="g14"
   transform="matrix(0.95849924,0,0,0.96178275,-3.4486803,-5.1209142e-8)">
	</g><g
   id="g16"
   transform="matrix(0.95849924,0,0,0.96178275,-3.4486803,-5.1209142e-8)">
	</g><g
   id="g18"
   transform="matrix(0.95849924,0,0,0.96178275,-3.4486803,-5.1209142e-8)">
	</g><g
   id="g20"
   transform="matrix(0.95849924,0,0,0.96178275,-3.4486803,-5.1209142e-8)">
	</g><g
   id="g22"
   transform="matrix(0.95849924,0,0,0.96178275,-3.4486803,-5.1209142e-8)">
	</g><g
   id="g24"
   transform="matrix(0.95849924,0,0,0.96178275,-3.4486803,-5.1209142e-8)">
	</g><g
   id="g26"
   transform="matrix(0.95849924,0,0,0.96178275,-3.4486803,-5.1209142e-8)">
	</g><g
   id="g28"
   transform="matrix(0.95849924,0,0,0.96178275,-3.4486803,-5.1209142e-8)">
	</g><g
   id="g30"
   transform="matrix(0.95849924,0,0,0.96178275,-3.4486803,-5.1209142e-8)">
	</g><g
   id="g32"
   transform="matrix(0.95849924,0,0,0.96178275,-3.4486803,-5.1209142e-8)">
	</g><g
   id="g34"
   transform="matrix(0.95849924,0,0,0.96178275,-3.4486803,-5.1209142e-8)">
	</g><g
   id="g38"
   transform="translate(0,-1.1919994)">
</g><g
   id="g40"
   transform="translate(0,-1.1919994)">
</g><g
   id="g42"
   transform="translate(0,-1.1919994)">
</g><g
   id="g44"
   transform="translate(0,-1.1919994)">
</g><g
   id="g46"
   transform="translate(0,-1.1919994)">
</g><g
   id="g48"
   transform="translate(0,-1.1919994)">
</g><g
   id="g50"
   transform="translate(0,-1.1919994)">
</g><g
   id="g52"
   transform="translate(0,-1.1919994)">
</g><g
   id="g54"
   transform="translate(0,-1.1919994)">
</g><g
   id="g56"
   transform="translate(0,-1.1919994)">
</g><g
   id="g58"
   transform="translate(0,-1.1919994)">
</g><g
   id="g60"
   transform="translate(0,-1.1919994)">
</g><g
   id="g62"
   transform="translate(0,-1.1919994)">
</g><g
   id="g64"
   transform="translate(0,-1.1919994)">
</g><g
   id="g66"
   transform="translate(0,-1.1919994)">
</g>
</svg>