<?xml version="1.0" encoding="UTF-8" standalone="no"?>
<!-- Created with Inkscape (http://www.inkscape.org/) -->

<svg
   xmlns:dc="http://purl.org/dc/elements/1.1/"
   xmlns:cc="http://creativecommons.org/ns#"
   xmlns:rdf="http://www.w3.org/1999/02/22-rdf-syntax-ns#"
   xmlns:svg="http://www.w3.org/2000/svg"
   xmlns="http://www.w3.org/2000/svg"
   xmlns:sodipodi="http://sodipodi.sourceforge.net/DTD/sodipodi-0.dtd"
   xmlns:inkscape="http://www.inkscape.org/namespaces/inkscape"
   width="196"
   height="80"
   viewBox="0 0 51.858332 21.166667"
   version="1.1"
   id="svg8"
   inkscape:version="0.92.3 (2405546, 2018-03-11)"
   sodipodi:docname="logo.svg">
  <defs
     id="defs2">
    <clipPath
       id="clipPath841"
       clipPathUnits="userSpaceOnUse">
      <path
         inkscape:connector-curvature="0"
         id="path839"
         d="M 0,500 H 500 V 0 H 0 Z" />
    </clipPath>
    <clipPath
       id="clipPath889"
       clipPathUnits="userSpaceOnUse">
      <path
         inkscape:connector-curvature="0"
         id="path887"
         d="M 0,500 H 500 V 0 H 0 Z" />
    </clipPath>
    <clipPath
       id="clipPath1019"
       clipPathUnits="userSpaceOnUse">
      <path
         inkscape:connector-curvature="0"
         id="path1017"
         d="M 0,500 H 500 V 0 H 0 Z" />
    </clipPath>
    <clipPath
       id="clipPath1087"
       clipPathUnits="userSpaceOnUse">
      <path
         inkscape:connector-curvature="0"
         id="path1085"
         d="M 0,500 H 500 V 0 H 0 Z" />
    </clipPath>
    <clipPath
       id="clipPath1115"
       clipPathUnits="userSpaceOnUse">
      <path
         inkscape:connector-curvature="0"
         id="path1113"
         d="M 0,500 H 500 V 0 H 0 Z" />
    </clipPath>
    <clipPath
       id="clipPath1139"
       clipPathUnits="userSpaceOnUse">
      <path
         inkscape:connector-curvature="0"
         id="path1137"
         d="M 0,500 H 500 V 0 H 0 Z" />
    </clipPath>
    <clipPath
       id="clipPath1169"
       clipPathUnits="userSpaceOnUse">
      <path
         inkscape:connector-curvature="0"
         id="path1167"
         d="M 0,500 H 500 V 0 H 0 Z" />
    </clipPath>
    <clipPath
       id="clipPath1189"
       clipPathUnits="userSpaceOnUse">
      <path
         inkscape:connector-curvature="0"
         id="path1187"
         d="M 0,500 H 500 V 0 H 0 Z" />
    </clipPath>
    <clipPath
       id="clipPath1587"
       clipPathUnits="userSpaceOnUse">
      <path
         inkscape:connector-curvature="0"
         id="path1585"
         d="M 0,800 H 800 V 0 H 0 Z" />
    </clipPath>
    <clipPath
       id="clipPath1621"
       clipPathUnits="userSpaceOnUse">
      <path
         inkscape:connector-curvature="0"
         id="path1619"
         d="M 0,800 H 800 V 0 H 0 Z" />
    </clipPath>
    <clipPath
       id="clipPath1705"
       clipPathUnits="userSpaceOnUse">
      <path
         inkscape:connector-curvature="0"
         id="path1703"
         d="M 0,800 H 800 V 0 H 0 Z" />
    </clipPath>
    <clipPath
       id="clipPath1771"
       clipPathUnits="userSpaceOnUse">
      <path
         inkscape:connector-curvature="0"
         id="path1769"
         d="M 0,800 H 800 V 0 H 0 Z" />
    </clipPath>
    <clipPath
       id="clipPath1807"
       clipPathUnits="userSpaceOnUse">
      <path
         inkscape:connector-curvature="0"
         id="path1805"
         d="M 0,800 H 800 V 0 H 0 Z" />
    </clipPath>
    <clipPath
       id="clipPath1927"
       clipPathUnits="userSpaceOnUse">
      <path
         inkscape:connector-curvature="0"
         id="path1925"
         d="M 0,800 H 800 V 0 H 0 Z" />
    </clipPath>
    <clipPath
       id="clipPath1943"
       clipPathUnits="userSpaceOnUse">
      <path
         inkscape:connector-curvature="0"
         id="path1941"
         d="M 0,800 H 800 V 0 H 0 Z" />
    </clipPath>
    <clipPath
       id="clipPath2013"
       clipPathUnits="userSpaceOnUse">
      <path
         inkscape:connector-curvature="0"
         id="path2011"
         d="M 0,800 H 800 V 0 H 0 Z" />
    </clipPath>
    <clipPath
       id="clipPath2021"
       clipPathUnits="userSpaceOnUse">
      <path
         inkscape:connector-curvature="0"
         id="path2019"
         d="M 279.379,53.0752 H 520.621 V 30.0029 H 279.379 Z" />
    </clipPath>
  </defs>
  <sodipodi:namedview
     id="base"
     pagecolor="#ffffff"
     bordercolor="#666666"
     borderopacity="1.0"
     inkscape:pageopacity="0.0"
     inkscape:pageshadow="2"
     inkscape:zoom="4.3520408"
     inkscape:cx="98"
     inkscape:cy="40"
     inkscape:document-units="mm"
     inkscape:current-layer="layer1"
     showgrid="false"
     units="px"
     inkscape:window-width="1366"
     inkscape:window-height="705"
     inkscape:window-x="-8"
     inkscape:window-y="-8"
     inkscape:window-maximized="1" />
  <metadata
     id="metadata5">
    <rdf:RDF>
      <cc:Work
         rdf:about="">
        <dc:format>image/svg+xml</dc:format>
        <dc:type
           rdf:resource="http://purl.org/dc/dcmitype/StillImage" />
        <dc:title></dc:title>
      </cc:Work>
    </rdf:RDF>
  </metadata>
  <g
     inkscape:label="Layer 1"
     inkscape:groupmode="layer"
     id="layer1"
     transform="translate(0,-275.83332)">
    <g
       id="g2708"
       transform="matrix(1.0070184,0,0,1.0064937,-56.854339,236.26789)">
      <g
         transform="matrix(0.35277777,0,0,-0.35277777,29.664551,138.8668)"
         id="g1013">
        <g
           clip-path="url(#clipPath1019)"
           id="g1015">
          <g
             transform="translate(105.2472,253.0218)"
             id="g1021">
            <path
               inkscape:connector-curvature="0"
               id="path1023"
               style="fill:#000000;fill-opacity:1;fill-rule:nonzero;stroke:none"
               d="m 0,0 h 29.751 c -0.184,16.149 -13.326,29.186 -29.52,29.186 -16.308,0 -29.528,-13.221 -29.528,-29.529 0,-16.231 13.096,-29.398 29.297,-29.523 z" />
          </g>
          <g
             transform="translate(105.2472,253.0218)"
             id="g1025">
            <path
               inkscape:connector-curvature="0"
               id="path1027"
               style="fill:#ffb22a;fill-opacity:1;fill-rule:nonzero;stroke:none"
               d="M 0,0 H 11.22 C 11.037,5.918 6.194,10.663 0.231,10.663 c -6.078,0 -11.005,-4.928 -11.005,-11.006 0,-6 4.804,-10.87 10.774,-10.994 z" />
          </g>
          <g
             transform="translate(105.2472,253.0218)"
             id="g1029">
            <path
               inkscape:connector-curvature="0"
               id="path1031"
               style="fill:#000000;fill-opacity:1;fill-rule:nonzero;stroke:none"
               d="m 0,0 h 2.178 c -0.163,0.93 -0.97,1.638 -1.947,1.638 -1.094,0 -1.981,-0.887 -1.981,-1.981 0,-1.015 0.766,-1.842 1.75,-1.958 z" />
          </g>
          <g
             transform="translate(115.0257,253.0218)"
             id="g1033">
            <path
               inkscape:connector-curvature="0"
               id="path1035"
               style="fill:none;stroke:#000000;stroke-width:0.71200001;stroke-linecap:butt;stroke-linejoin:miter;stroke-miterlimit:10;stroke-dasharray:none;stroke-opacity:1"
               d="m 0,0 c -0.182,5.122 -4.381,9.221 -9.547,9.221 -5.282,0 -9.564,-4.282 -9.564,-9.564 0,-5.204 4.158,-9.429 9.333,-9.553" />
          </g>
          <g
             transform="translate(89.959,252.6788)"
             id="g1037">
            <path
               inkscape:connector-curvature="0"
               id="path1039"
               style="fill:#4c4c4c;fill-opacity:1;fill-rule:nonzero;stroke:none"
               d="m 0,0 c 0,0 -0.028,0.383 -0.051,1.051 -0.022,0.334 -0.014,0.739 0.034,1.211 0.031,0.473 0.062,1.014 0.2,1.579 0.058,0.287 0.118,0.586 0.18,0.895 0.096,0.301 0.195,0.612 0.297,0.931 0.177,0.652 0.509,1.283 0.803,1.958 0.378,0.629 0.709,1.323 1.198,1.927 0.435,0.644 0.985,1.21 1.507,1.8 0.589,0.523 1.155,1.072 1.799,1.507 0.603,0.491 1.298,0.821 1.927,1.199 0.675,0.294 1.306,0.627 1.958,0.803 0.32,0.102 0.63,0.201 0.931,0.297 0.309,0.062 0.608,0.122 0.895,0.179 0.567,0.139 1.103,0.169 1.574,0.2 0.468,0.048 0.877,0.056 1.215,0.034 0.674,-0.023 1.053,-0.051 1.053,-0.051 0,0 -0.382,-0.067 -1.039,-0.157 -0.331,-0.03 -0.726,-0.101 -1.172,-0.22 C 12.861,15.039 12.357,14.93 11.827,14.742 11.56,14.657 11.283,14.567 10.996,14.475 10.719,14.359 10.432,14.239 10.137,14.116 9.535,13.901 8.967,13.527 8.344,13.231 7.765,12.849 7.145,12.492 6.583,12.031 5.986,11.616 5.468,11.09 4.923,10.596 4.429,10.052 3.903,9.534 3.488,8.937 3.026,8.376 2.67,7.755 2.287,7.177 1.992,6.553 1.616,5.986 1.402,5.384 1.279,5.089 1.159,4.801 1.043,4.524 0.951,4.237 0.862,3.96 0.776,3.693 0.588,3.161 0.48,2.663 0.376,2.217 0.258,1.775 0.186,1.375 0.156,1.041 0.066,0.378 0,0 0,0" />
          </g>
          <g
             transform="translate(85.741,252.6788)"
             id="g1041">
            <path
               inkscape:connector-curvature="0"
               id="path1043"
               style="fill:#4c4c4c;fill-opacity:1;fill-rule:nonzero;stroke:none"
               d="m 0,0 c 0,0 -0.013,0.486 -0.036,1.335 -0.002,0.213 -0.004,0.448 -0.007,0.704 0.023,0.257 0.048,0.535 0.075,0.832 0.049,0.597 0.099,1.28 0.282,1.994 0.077,0.362 0.157,0.739 0.241,1.129 0.124,0.38 0.253,0.772 0.385,1.175 0.23,0.822 0.658,1.616 1.032,2.468 0.482,0.793 0.906,1.665 1.525,2.427 0.55,0.813 1.246,1.526 1.906,2.27 0.743,0.661 1.457,1.357 2.27,1.907 0.761,0.62 1.635,1.044 2.428,1.525 0.851,0.374 1.645,0.804 2.467,1.033 0.404,0.132 0.796,0.261 1.175,0.386 0.39,0.083 0.767,0.163 1.129,0.24 0.716,0.183 1.393,0.232 1.989,0.281 0.297,0.027 0.574,0.052 0.831,0.075 0.258,-0.003 0.495,-0.005 0.709,-0.007 0.854,-0.013 1.337,-0.036 1.337,-0.036 0,0 -0.481,-0.062 -1.324,-0.171 -0.209,-0.024 -0.44,-0.051 -0.692,-0.08 C 17.473,19.433 17.205,19.375 16.918,19.312 16.345,19.19 15.701,19.062 15.021,18.83 14.679,18.725 14.324,18.615 13.956,18.502 13.6,18.357 13.231,18.208 12.853,18.054 12.081,17.786 11.351,17.315 10.55,16.939 9.807,16.454 9.009,16.004 8.289,15.413 7.523,14.883 6.858,14.21 6.159,13.579 5.526,12.881 4.854,12.215 4.324,11.449 3.732,10.73 3.283,9.931 2.797,9.188 2.422,8.388 1.949,7.658 1.682,6.885 1.528,6.507 1.379,6.138 1.234,5.782 1.121,5.414 1.011,5.059 0.906,4.717 0.674,4.035 0.547,3.397 0.425,2.826 0.363,2.539 0.304,2.271 0.25,2.023 0.221,1.769 0.195,1.536 0.171,1.325 0.062,0.482 0,0 0,0" />
          </g>
          <g
             transform="translate(81.067,252.6788)"
             id="g1045">
            <path
               inkscape:connector-curvature="0"
               id="path1047"
               style="fill:#4c4c4c;fill-opacity:1;fill-rule:nonzero;stroke:none"
               d="m 0,0 c 0,0 -0.007,0.6 -0.02,1.65 0,0.263 0.001,0.553 0.002,0.87 0.032,0.316 0.067,0.659 0.104,1.025 0.069,0.736 0.139,1.576 0.378,2.454 0.101,0.444 0.206,0.907 0.315,1.386 0.155,0.466 0.315,0.949 0.48,1.444 0.285,1.013 0.813,1.99 1.278,3.036 0.596,0.975 1.124,2.046 1.886,2.984 0.678,0.999 1.536,1.875 2.349,2.79 0.914,0.814 1.791,1.672 2.791,2.35 0.936,0.764 2.008,1.291 2.983,1.886 1.046,0.465 2.023,0.995 3.036,1.279 0.496,0.165 0.978,0.325 1.445,0.48 0.479,0.109 0.942,0.214 1.386,0.315 0.879,0.239 1.713,0.308 2.447,0.377 0.366,0.037 0.708,0.072 1.025,0.104 0.318,0.001 0.61,0.002 0.875,0.002 1.051,-0.013 1.652,-0.02 1.652,-0.02 0,0 -0.596,-0.068 -1.639,-0.187 C 22.514,24.198 22.227,24.168 21.915,24.136 21.607,24.073 21.273,24.005 20.917,23.932 20.206,23.789 19.406,23.64 18.559,23.365 18.133,23.241 17.69,23.111 17.231,22.977 16.788,22.799 16.33,22.615 15.859,22.426 14.9,22.095 13.992,21.511 12.995,21.049 12.07,20.449 11.074,19.895 10.179,19.161 9.226,18.504 8.398,17.668 7.528,16.884 6.742,16.015 5.908,15.186 5.25,14.233 4.515,13.339 3.962,12.342 3.362,11.417 2.9,10.42 2.314,9.513 1.984,8.553 1.795,8.082 1.611,7.624 1.433,7.181 1.299,6.722 1.17,6.279 1.045,5.853 0.771,5.004 0.622,4.21 0.479,3.5 0.406,3.145 0.338,2.812 0.275,2.504 0.243,2.19 0.213,1.901 0.186,1.64 0.068,0.596 0,0 0,0" />
          </g>
          <g
             transform="translate(123.4357,263.2039)"
             id="g1049">
            <path
               inkscape:connector-curvature="0"
               id="path1051"
               style="fill:#ffffff;fill-opacity:1;fill-rule:nonzero;stroke:none"
               d="m 0,0 c 0,-1.742 -1.412,-3.154 -3.154,-3.154 -1.742,0 -3.154,1.412 -3.154,3.154 0,1.742 1.412,3.154 3.154,3.154 C -1.412,3.154 0,1.742 0,0" />
          </g>
          <path
             inkscape:connector-curvature="0"
             id="path1053"
             style="fill:#ffffff;fill-opacity:1;fill-rule:nonzero;stroke:none"
             d="m 122.414,280.11 h 1.021 v -16.906 h -1.021 z" />
          <path
             inkscape:connector-curvature="0"
             id="path1055"
             style="fill:#ffffff;fill-opacity:1;fill-rule:nonzero;stroke:none"
             d="m 128.37,260.728 h -1.022 v -7.706 h 1.022 z" />
          <g
             transform="translate(92.3796,240.4372)"
             id="g1057">
            <path
               inkscape:connector-curvature="0"
               id="path1059"
               style="fill:#ffffff;fill-opacity:1;fill-rule:nonzero;stroke:none"
               d="m 0,0 c 0,-1.337 -1.084,-2.421 -2.421,-2.421 -1.337,0 -2.42,1.084 -2.42,2.421 0,1.337 1.083,2.421 2.42,2.421 C -1.084,2.421 0,1.337 0,0" />
          </g>
          <path
             inkscape:connector-curvature="0"
             id="path1061"
             style="fill:#ffffff;fill-opacity:1;fill-rule:nonzero;stroke:none"
             d="M 91.596,253.412 H 92.38 V 240.437 H 91.596 Z" />
          <g
             transform="translate(87.7794,270.0799)"
             id="g1063">
            <path
               inkscape:connector-curvature="0"
               id="path1065"
               style="fill:#ffffff;fill-opacity:1;fill-rule:nonzero;stroke:none"
               d="m 0,0 -6.154,-6.135 v -3.136 -8.943 c -0.465,0.429 -1.082,0.698 -1.765,0.698 -1.441,0 -2.61,-1.169 -2.61,-2.611 0,-1.442 1.169,-2.61 2.61,-2.61 1.442,0 2.611,1.168 2.611,2.61 V -8.533 L 0,-3.898 v -8.181 c -0.465,0.429 -1.082,0.697 -1.765,0.697 -1.442,0 -2.61,-1.168 -2.61,-2.61 0,-1.442 1.168,-2.611 2.61,-2.611 1.442,0 2.611,1.169 2.611,2.611 L 0.846,0 Z" />
          </g>
        </g>
      </g>
      <text
         id="text2673"
         y="60.105999"
         x="67.406227"
         style="font-style:normal;font-variant:normal;font-weight:normal;font-stretch:normal;font-size:14.11111069px;line-height:1.25;font-family:'Bauhaus 93';-inkscape-font-specification:'Bauhaus 93, Normal';font-variant-ligatures:normal;font-variant-caps:normal;font-variant-numeric:normal;font-feature-settings:normal;text-align:start;letter-spacing:0px;word-spacing:0px;writing-mode:lr-tb;text-anchor:start;fill:#ffb22a;fill-opacity:1;stroke:none;stroke-width:0.26458332"
         xml:space="preserve"><tspan
           style="font-style:normal;font-variant:normal;font-weight:normal;font-stretch:normal;font-size:14.11111069px;font-family:'Bauhaus 93';-inkscape-font-specification:'Bauhaus 93, Normal';font-variant-ligatures:normal;font-variant-caps:normal;font-variant-numeric:normal;font-feature-settings:normal;text-align:start;writing-mode:lr-tb;text-anchor:start;fill:#ffb22a;fill-opacity:1;stroke-width:0.26458332"
           y="60.105999"
           x="67.406227"
           id="tspan2671"
           sodipodi:role="line">MUSIC</tspan></text>
      <text
         transform="scale(0.97779246,1.0227119)"
         id="text2677"
         y="47.902641"
         x="78.984734"
         style="font-style:normal;font-variant:normal;font-weight:bold;font-stretch:semi-expanded;font-size:4.82920837px;line-height:1.25;font-family:Magneto;-inkscape-font-specification:'Magneto, Bold Semi-Expanded';font-variant-ligatures:normal;font-variant-caps:normal;font-variant-numeric:normal;font-feature-settings:normal;text-align:start;letter-spacing:0px;word-spacing:0px;writing-mode:lr-tb;text-anchor:start;fill:#d40000;fill-opacity:1;stroke:none;stroke-width:0.25870758"
         xml:space="preserve"><tspan
           style="font-style:normal;font-variant:normal;font-weight:bold;font-stretch:semi-expanded;font-size:4.82920837px;font-family:Magneto;-inkscape-font-specification:'Magneto, Bold Semi-Expanded';font-variant-ligatures:normal;font-variant-caps:normal;font-variant-numeric:normal;font-feature-settings:normal;text-align:start;writing-mode:lr-tb;text-anchor:start;fill:#d40000;stroke-width:0.25870758"
           y="47.902641"
           x="78.984734"
           id="tspan2675"
           sodipodi:role="line">Krazy about</tspan></text>
    </g>
  </g>
</svg>
