<?xml version="1.0" encoding="UTF-8" standalone="no"?>
<!-- Generator: Adobe Illustrator 17.1.0, SVG Export Plug-In . SVG Version: 6.00 Build 0)  -->

<svg
   xmlns:dc="http://purl.org/dc/elements/1.1/"
   xmlns:cc="http://creativecommons.org/ns#"
   xmlns:rdf="http://www.w3.org/1999/02/22-rdf-syntax-ns#"
   xmlns:svg="http://www.w3.org/2000/svg"
   xmlns="http://www.w3.org/2000/svg"
   xmlns:xlink="http://www.w3.org/1999/xlink"
   xmlns:sodipodi="http://sodipodi.sourceforge.net/DTD/sodipodi-0.dtd"
   xmlns:inkscape="http://www.inkscape.org/namespaces/inkscape"
   version="1.1"
   id="Pinterest"
   x="0px"
   y="0px"
   viewBox="0 0 128 128"
   enable-background="new 0 0 128 128"
   xml:space="preserve"
   sodipodi:docname="pint.svg"
   inkscape:version="0.92.3 (2405546, 2018-03-11)"><metadata
   id="metadata2122"><rdf:RDF><cc:Work
       rdf:about=""><dc:format>image/svg+xml</dc:format><dc:type
         rdf:resource="http://purl.org/dc/dcmitype/StillImage" /></cc:Work></rdf:RDF></metadata><defs
   id="defs2120"><linearGradient
   inkscape:collect="always"
   id="linearGradient1938"><stop
     style="stop-color:#999999;stop-opacity:1"
     offset="0"
     id="stop1934" /><stop
     style="stop-color:#333333;stop-opacity:1"
     offset="1"
     id="stop1936" /></linearGradient>
	
	
<linearGradient
   inkscape:collect="always"
   xlink:href="#linearGradient1938"
   id="linearGradient1940"
   x1="9.3134327"
   y1="9.7910452"
   x2="117.25372"
   y2="117.25373"
   gradientUnits="userSpaceOnUse" /></defs><sodipodi:namedview
   pagecolor="#ffffff"
   bordercolor="#666666"
   borderopacity="1"
   objecttolerance="10"
   gridtolerance="10"
   guidetolerance="10"
   inkscape:pageopacity="0"
   inkscape:pageshadow="2"
   inkscape:window-width="1366"
   inkscape:window-height="705"
   id="namedview2118"
   showgrid="false"
   inkscape:zoom="4.1875"
   inkscape:cx="64"
   inkscape:cy="64"
   inkscape:window-x="-8"
   inkscape:window-y="-8"
   inkscape:window-maximized="1"
   inkscape:current-layer="Pinterest" />
<path
   style="fill:url(#linearGradient1940);fill-opacity:1"
   d="M 7 0 C 3.122 0 0 3.122 0 7 L 0 121 C 0 124.878 3.122 128 7 128 L 121 128 C 124.878 128 128 124.878 128 121 L 128 7 C 128 3.122 124.878 0 121 0 L 7 0 z M 66.441406 11.888672 C 89.306395 11.888672 104.3418 28.424837 104.3418 46.181641 C 104.3418 69.671413 91.292239 87.212891 72.041016 87.212891 C 65.578868 87.212891 59.500695 83.71609 57.414062 79.746094 C 57.414062 79.746094 53.939201 93.54607 53.205078 96.207031 C 50.617252 105.60684 42.989696 115.02065 42.400391 115.79883 C 41.986583 116.32983 41.071073 116.16134 40.976562 115.45703 C 40.809789 114.25719 38.868592 102.38704 41.158203 92.703125 C 42.307006 87.847062 48.857422 60.082031 48.857422 60.082031 C 48.857422 60.082031 46.945313 56.258593 46.945312 50.609375 C 46.945312 41.736353 52.090836 35.113281 58.488281 35.113281 C 63.933649 35.113281 66.566406 39.197538 66.566406 44.097656 C 66.566406 49.575739 63.083771 57.762667 61.28125 65.345703 C 59.776071 71.699092 64.466273 76.875 70.732422 76.875 C 82.073315 76.875 89.707031 62.306121 89.707031 45.046875 C 89.707031 31.928324 80.875018 22.103516 64.800781 22.103516 C 46.647035 22.103516 35.326172 35.646106 35.326172 50.775391 C 35.326172 55.987828 36.868588 59.671107 39.275391 62.513672 C 40.380865 63.822125 40.539103 64.348338 40.138672 65.853516 C 39.84133 66.958264 39.196075 69.606589 38.912109 70.660156 C 38.51953 72.172314 37.29048 72.717556 35.916016 72.158203 C 27.555528 68.740436 23.660156 59.57888 23.660156 49.285156 C 23.660156 32.27658 38.001789 11.888672 66.441406 11.888672 z "
   id="pinterest-back" />
</svg>